<svg width="90" height="71" viewBox="0 0 90 71" fill="none" xmlns="http://www.w3.org/2000/svg">
<g clip-path="url(#clip0_176011_36)">
<rect y="0.813751" width="90" height="70" rx="12" fill="#130A1E"/>
<g filter="url(#filter0_d_176011_36)">
<g filter="url(#filter1_d_176011_36)">
<path d="M14.3385 9.19762C12.9646 9.3123 11.6235 9.41059 11.3727 9.42698L10.9147 9.44336L14.4584 14.7187C16.3993 17.6185 17.9913 20.1087 17.9913 20.2562C17.9913 20.4692 15.2653 27.8251 15.0691 28.1528C15.0254 28.2183 14.5893 28.3166 14.0877 28.3822L13.1936 28.4968V30.1679V31.839L11.7543 33.3462C10.9583 34.1818 9.32275 35.8856 8.12333 37.1471C5.43009 39.9814 2.09353 43.3399 0.894112 44.4212L0 45.2403L0.894112 45.355C2.37703 45.5188 8.46135 45.5025 9.81342 45.3059C10.5004 45.2239 11.4926 45.0437 12.0269 44.929C12.5503 44.8144 12.9755 44.7652 12.9755 44.8144C12.9755 44.9946 10.5876 47.3374 4.39423 53.268C2.22438 55.3323 0.468864 57.0525 0.490671 57.0853C0.577902 57.2163 7.50182 56.5446 9.21371 56.2333C11.3727 55.8238 14.1204 55.1848 15.6797 54.7261C17.5333 54.1691 20.2593 53.0878 21.0007 52.6127C21.2079 52.4816 21.3715 52.4161 21.3715 52.4325C21.3715 52.4652 21.2515 52.9731 21.0989 53.5629L20.8372 54.6442L21.5132 54.1855C21.8839 53.9397 22.4182 53.5629 22.7017 53.3663C22.9852 53.1861 23.236 53.0223 23.2796 53.0223C23.3887 53.0223 21.8076 57.544 20.4228 61.1974C19.8994 62.5736 19.8667 62.721 20.0848 62.6227C20.2266 62.5736 20.8808 62.377 21.535 62.1804C22.2001 62.0002 24.1846 61.3776 25.9511 60.8042C30.0291 59.4936 30.0073 59.4936 31.2394 59.7393C32.079 59.9195 32.4824 59.9195 33.5183 59.7393C34.4996 59.5755 35.2956 59.5591 37.0947 59.6902C38.3705 59.7721 39.4391 59.8212 39.4609 59.7885C39.4827 59.7721 39.4173 59.5919 39.3082 59.4117L39.1119 59.084H59.4257H79.7504L79.3688 58.4614C78.9326 57.7734 77.3843 55.0046 77.2753 54.7097C77.188 54.4967 77.8423 53.1697 79.8595 49.4999C80.5464 48.2384 81.1025 47.2063 81.0916 47.1899C81.0807 47.1735 80.143 47.1244 79.009 47.0752C77.875 47.0097 76.9372 46.9442 76.9154 46.9114C76.8936 46.8786 77.5479 46.551 78.3765 46.1578C79.1943 45.781 79.9249 45.4369 80.0012 45.4042C80.0884 45.355 80.0121 45.0273 79.7722 44.4376C79.576 43.9461 79.2816 43.1597 79.1071 42.6682C78.7364 41.6033 78.7473 41.4395 79.4669 38.6216L79.9794 36.5901L80.7972 35.902C82.6072 34.3784 88.1464 29.4798 89.3022 28.3822L90 27.7105L85.9765 27.5958C83.7521 27.5302 81.1134 27.5139 80.0993 27.563C78.8018 27.6449 78.2784 27.6122 78.3002 27.4975C78.322 27.3992 78.8454 26.7275 79.4669 25.9902L80.6009 24.6796H78.2566H75.9123L76.4357 22.7955C76.7192 21.7798 77.0899 20.3709 77.2535 19.6992C77.417 19.0274 77.6351 18.3721 77.7332 18.2411C77.8314 18.1264 78.2239 17.8151 78.6164 17.5694C79.7286 16.8485 85.8456 12.2776 86.0855 11.9827L86.3036 11.7206L86.0855 11.8025C85.9656 11.8353 84.7117 11.9664 83.3051 12.0646C81.8985 12.1629 79.7613 12.3104 78.5728 12.3923L76.403 12.5561L75.6288 11.4585C75.2035 10.8359 74.8437 10.2953 74.8219 10.2134C74.7565 10.0004 74.6256 10.0823 73.8079 10.7704C72.9246 11.524 72.7502 11.524 71.8343 10.8359C71.5399 10.6066 71.2564 10.4263 71.2127 10.4263C71.1691 10.4263 71.0274 10.754 70.8965 11.1636L70.6567 11.9008H69.032H67.3964L67.5709 11.2783C67.6581 10.9506 67.8108 10.4591 67.898 10.197L68.0615 9.73825L67.0366 9.85294C64.6159 10.1151 59.5893 10.9342 58.4008 11.2455C56.1982 11.8189 54.8134 12.3595 53.5595 13.0804L52.9816 13.4244L52.6872 12.9985C52.0002 12.0483 50.8008 11.5076 49.5251 11.6059C49.0998 11.6223 48.74 11.5895 48.74 11.524C48.74 11.311 49.2961 9.70549 49.4815 9.39421C49.5687 9.24677 49.6232 9.1157 49.6014 9.1157C49.3833 9.1157 44.4439 11.8681 43.6152 12.4578C43.1791 12.7691 42.841 12.8838 42.3504 12.8838C41.4345 12.8838 39.4609 13.1951 38.5559 13.4572C38.1415 13.5883 37.4655 13.9487 37.062 14.2436L36.3206 14.8006L36.0153 14.3255C34.9576 12.6381 32.3952 10.9015 29.8001 10.0987C26.4744 9.06655 20.3792 8.70612 14.3385 9.19762ZM21.9494 9.8857C21.0334 9.91847 19.5287 9.91847 18.6237 9.8857C17.7078 9.86932 18.4492 9.83656 20.2811 9.83656C22.1129 9.83656 22.8544 9.86932 21.9494 9.8857ZM15.2653 10.0987C14.5784 10.1642 13.6952 10.2297 13.3135 10.2461C12.7138 10.2625 12.6375 10.2953 12.692 10.541C12.7575 10.8195 12.7465 10.8195 12.6048 10.541C12.5285 10.3936 12.3976 10.2461 12.3104 10.2297C11.9179 10.1642 13.8369 10.0004 15.1018 9.984H16.5193L15.2653 10.0987ZM24.9479 10.0495C24.7189 10.0823 24.3264 10.0823 24.0756 10.0495C23.8139 10.0168 23.9993 9.984 24.479 9.984C24.9588 9.984 25.166 10.0168 24.9479 10.0495ZM27.4231 10.2789C28.448 10.4591 28.8297 10.5738 28.7533 10.6885C28.7315 10.7212 28.1972 10.6393 27.5757 10.5083C26.9542 10.3772 26.2346 10.2625 25.9838 10.2625C25.7221 10.2625 25.5149 10.2134 25.5149 10.1314C25.5149 9.984 26.0165 10.0331 27.4231 10.2789ZM48.1512 11.1636C47.9113 12.0155 47.7914 12.294 47.7369 12.1302C47.6605 11.9336 48.064 10.5902 48.2057 10.5902C48.2602 10.5902 48.2384 10.8523 48.1512 11.1636ZM67.0366 11.2783C66.9057 11.9008 66.6659 12.3432 66.764 11.8189C66.7858 11.6387 66.8512 11.3438 66.8948 11.18C66.993 10.8359 67.1565 10.8359 64.3324 11.18C63.8854 11.2455 63.5474 11.2291 63.5801 11.18C63.6564 11.0653 65.4337 10.8195 66.535 10.7704L67.1565 10.754L67.0366 11.2783ZM18.8636 20.0104C18.8636 20.0923 17.6642 18.3557 16.1812 16.1604C12.7575 11.0161 12.8665 11.1963 12.8665 10.9998C12.8665 10.9178 14.2186 12.8674 15.865 15.3413C17.5115 17.8151 18.8636 19.9121 18.8636 20.0104ZM29.8437 11.0161C29.811 11.0653 29.7129 11.0817 29.6365 11.0325C29.5493 10.9834 29.582 10.9342 29.702 10.9342C29.8219 10.9178 29.8873 10.967 29.8437 11.0161ZM47.7478 10.9834C47.726 10.9998 47.5406 11.1144 47.3552 11.2127C46.9518 11.4093 46.8646 11.311 47.2462 11.0817C47.4861 10.9342 47.835 10.8687 47.7478 10.9834ZM30.3889 11.18C30.3562 11.2291 30.2581 11.2455 30.1817 11.1963C30.0945 11.1472 30.1272 11.098 30.2472 11.098C30.3671 11.0817 30.4325 11.1308 30.3889 11.18ZM74.7238 11.2946C74.8001 11.4093 74.9528 11.6878 75.0727 11.9008C75.2799 12.2776 75.269 12.2612 74.9309 11.8517C74.5602 11.3929 74.2113 11.2783 74.0914 11.5732C74.0586 11.6551 73.9387 11.737 73.8406 11.737C73.7424 11.737 73.8188 11.6059 74.0368 11.4257C74.4948 11.0325 74.5602 11.0161 74.7238 11.2946ZM31.3484 11.4912L31.6756 11.737L31.2939 11.6387C31.0867 11.5732 30.8142 11.4749 30.6942 11.3929C30.4979 11.2783 30.4979 11.2619 30.7487 11.2619C30.9014 11.2619 31.174 11.3602 31.3484 11.4912ZM63.133 11.3274C63.0458 11.3602 62.3807 11.4749 61.661 11.5732C60.9414 11.6715 59.7965 11.8681 59.1095 11.9991C58.4226 12.1302 57.8447 12.1957 57.8229 12.1629C57.7465 12.0483 59.1313 11.737 60.5706 11.5568C61.3557 11.4585 62.0099 11.3438 62.0317 11.311C62.0536 11.2783 62.348 11.2619 62.686 11.2619C63.024 11.2783 63.2203 11.311 63.133 11.3274ZM71.6053 11.6715C71.5726 11.7206 71.4744 11.737 71.3981 11.6878C71.3109 11.6387 71.3436 11.5895 71.4635 11.5895C71.5835 11.5732 71.6489 11.6223 71.6053 11.6715ZM32.3189 11.9991C32.6024 12.1466 32.8095 12.294 32.7877 12.3268C32.7332 12.4087 31.9045 12.0483 31.7955 11.8844C31.6428 11.6878 31.7192 11.7042 32.3189 11.9991ZM72.7175 12.2449C72.5757 12.3595 71.9869 12.1629 71.8343 11.9336C71.7797 11.8517 71.9869 11.8681 72.2922 11.9664C72.5866 12.0483 72.7829 12.1793 72.7175 12.2449ZM71.0165 12.6381C70.9838 12.7855 70.9292 12.8674 70.9074 12.8183C70.8747 12.7691 70.8856 12.6708 70.9292 12.5725C71.0274 12.3104 71.0928 12.3595 71.0165 12.6381ZM47.5079 12.8019C47.5079 12.9329 47.4643 13.0476 47.4097 13.0476C47.3007 13.0476 47.2898 12.8183 47.3988 12.6708C47.497 12.507 47.5079 12.5234 47.5079 12.8019ZM48.5219 12.72C48.3693 12.7855 48.1512 12.851 48.0313 12.851L47.8132 12.8674L48.0313 12.72C48.1512 12.6381 48.3693 12.5889 48.5219 12.5889H48.7945L48.5219 12.72ZM69.1628 12.8347C68.7921 12.8674 68.1488 12.8674 67.7453 12.8347C67.3419 12.8019 67.6472 12.7855 68.4214 12.7855C69.2064 12.7855 69.5336 12.8019 69.1628 12.8347ZM83.4795 13.1459C83.2505 13.3425 83.1415 13.3589 83.087 13.2115C83.0325 13.0968 82.7272 13.0476 82.1275 13.1132C81.5932 13.1459 81.2551 13.1295 81.2988 13.0312C81.3315 12.9493 81.9094 12.8838 82.5745 12.8838C83.7412 12.9002 83.7848 12.9002 83.4795 13.1459ZM52.4691 13.9487C52.5563 14.1781 52.4909 14.1453 52.2401 13.8013C52.0548 13.5227 51.9021 13.2442 51.9021 13.1623C51.9021 12.9329 52.3274 13.5391 52.4691 13.9487ZM55.3586 13.1459C55.3259 13.1951 55.2278 13.2115 55.1514 13.1623C55.0642 13.1132 55.0969 13.064 55.2169 13.064C55.3368 13.0476 55.4022 13.0968 55.3586 13.1459ZM80.2302 13.1623C80.0666 13.1951 79.7722 13.1951 79.576 13.1623C79.3797 13.1295 79.5105 13.0968 79.8704 13.0968C80.2302 13.0968 80.3938 13.1295 80.2302 13.1623ZM25.4059 13.3753C28.3935 13.8504 30.9559 14.9644 32.8423 16.6519C33.6928 17.4219 34.9358 19.093 35.1866 19.8138C35.4374 20.5675 35.3828 21.7306 35.0448 22.7464C34.4451 24.5158 32.1989 27.5302 29.5275 30.1352C25.5585 34.0179 22.1456 36.459 17.8822 38.5069C14.3821 40.178 12.692 40.6695 9.97698 40.8333L8.55949 40.9316L9.91156 39.8339C11.3072 38.7035 12.9973 37.1962 14.6438 35.6071L15.5924 34.6733V33.4609C15.5924 32.8056 15.6252 32.0192 15.6688 31.7243L15.7342 31.1837L16.5193 31.282C17.0863 31.3639 17.348 31.3311 17.4243 31.1837C17.4788 31.0854 18.133 29.3652 18.8636 27.3828C19.605 25.4005 20.4882 23.0249 20.8372 22.1075C21.197 21.19 21.4805 20.42 21.4805 20.3709C21.4805 20.3381 21.1861 19.863 20.8154 19.3223L20.1611 18.3394L20.4664 18.2411C20.6409 18.1919 21.2079 18.0936 21.7313 18.0281C22.2547 17.9625 22.6799 17.8642 22.6799 17.8151C22.6799 17.7496 22.4945 17.6021 22.2765 17.4874C21.4042 17.0123 19.6268 15.7508 18.2421 14.6368C17.0426 13.6702 16.8355 13.4408 17.0426 13.3425C17.4352 13.1787 24.2719 13.1951 25.4059 13.3753ZM78.4529 13.3917C77.984 13.5391 76.1304 13.5555 76.0758 13.4081C76.0431 13.3425 76.6428 13.2934 77.3952 13.2934C78.1585 13.2934 78.6382 13.3425 78.4529 13.3917ZM41.7398 13.8176C41.6307 13.8504 41.4563 13.8504 41.3581 13.8176C41.2491 13.7685 41.3363 13.7357 41.5435 13.7357C41.7507 13.7357 41.8379 13.7685 41.7398 13.8176ZM35.2193 14.391C35.2193 14.473 35.0993 14.4074 34.9467 14.26C34.794 14.1125 34.6741 13.9651 34.6741 13.9323C34.6741 13.8996 34.794 13.9651 34.9467 14.0634C35.0993 14.1617 35.2193 14.3091 35.2193 14.391ZM40.8784 13.9323C40.8566 13.9651 40.4422 14.0306 39.9624 14.0798C39.45 14.1289 39.221 14.1125 39.4173 14.0306C39.7444 13.8996 40.9656 13.8176 40.8784 13.9323ZM82.2147 13.9487C82.2147 14.047 81.386 14.6859 81.2661 14.6859C81.157 14.6859 82.0184 13.8832 82.1384 13.8668C82.182 13.8668 82.2147 13.8996 82.2147 13.9487ZM73.797 15.4559C74.5711 17.0451 74.582 17.0942 74.3858 17.7004C74.0477 18.6998 71.9978 27.0551 72.0523 27.2026C72.0851 27.2845 72.5103 27.3009 73.0119 27.2354C73.5462 27.1862 73.9278 27.2026 73.9278 27.2845C73.9278 27.7105 72.4885 29.3488 71.4744 30.086C70.166 31.0362 67.8217 32.0847 67.8217 31.7407C67.8217 31.6424 69.6208 23.5 69.8389 22.5826C69.9588 22.1075 69.3046 23.0577 67.789 25.5807C66.9276 27.0224 65.6845 28.9392 65.0303 29.8403C64.3761 30.7413 63.8091 31.5441 63.7654 31.6424C63.5801 32.0192 63.7109 31.2492 64.3979 28.0873C65.2157 24.3192 65.6627 21.8945 65.5537 21.8945C65.5101 21.8945 64.954 22.6809 64.3215 23.6475C63.3729 25.1056 62.7187 26.3507 61.5956 28.8081C61.5302 28.9556 58.0955 29.6273 58.0191 29.5126C57.9973 29.4798 58.1609 29.1358 58.3681 28.7426C58.9678 27.6285 61.2685 21.6979 61.5956 20.3872C61.6937 19.994 61.6719 19.9613 61.3666 19.863C61.1812 19.8138 60.5706 19.7647 60.0036 19.7647C59.2295 19.7647 58.9787 19.7155 59.0114 19.5517C59.0877 19.224 60.1672 18.1919 61.661 17.0451C62.4461 16.4389 63.3402 15.7017 63.6673 15.3904C63.9835 15.0791 64.2561 14.8498 64.267 14.8825C64.4197 15.1938 64.7795 17.127 64.834 17.9134C64.8776 18.4868 64.9322 18.9455 64.9649 18.9455C64.9976 18.9455 65.2484 18.667 65.521 18.323C65.7936 17.9789 66.2406 17.4711 66.5132 17.1925C67.0475 16.6519 68.9557 15.1774 69.1192 15.1774C69.1737 15.1774 69.4027 15.6198 69.6208 16.144C69.9261 16.914 69.9915 17.1925 69.9043 17.4219C69.5663 18.3394 69.4245 18.8636 69.5772 18.6834C69.9479 18.2574 71.6489 16.1604 72.3358 15.3085C72.7502 14.7842 73.1209 14.3583 73.1754 14.3583C73.219 14.3583 73.4916 14.8498 73.797 15.4559ZM38.0543 14.5876C38.0543 14.6204 37.8907 14.7351 37.7054 14.8334C37.3782 14.9972 37.3673 14.9808 37.5527 14.7679C37.749 14.5385 38.0543 14.4402 38.0543 14.5876ZM80.5246 15.2593C80.1648 15.5706 79.794 15.8164 79.7068 15.8164C79.5323 15.8164 80.8844 14.7023 81.0698 14.7023C81.1352 14.6859 80.8844 14.9481 80.5246 15.2593ZM36.8985 15.4723C36.277 16.144 36.2006 16.2096 36.2551 15.9638C36.3097 15.7508 37.0293 15.0627 37.2256 15.03C37.2801 15.0136 37.1275 15.2266 36.8985 15.4723ZM60.298 15.5706C60.298 15.6853 59.5566 17.6185 59.0332 18.88C58.7606 19.5189 58.1936 21.3702 57.7465 22.9758C57.3104 24.5977 56.787 26.449 56.6017 27.1043C56.4054 27.776 56.2636 28.3494 56.2963 28.3822C56.3181 28.4313 56.7434 28.2347 57.245 27.9562C57.7465 27.6777 58.1718 27.4975 58.2045 27.5466C58.3135 27.7105 57.7356 29.5945 57.5394 29.6928C57.245 29.8403 57.2123 29.6928 57.3976 29.1194C57.6593 28.3822 57.6048 28.3003 57.2668 28.89C57.0269 29.316 56.8088 29.4798 56.1001 29.7256C55.6203 29.9058 54.7262 30.2498 54.1047 30.4956C53.4832 30.7413 52.9489 30.9052 52.9271 30.856C52.9053 30.8232 53.0361 30.299 53.2215 29.6928C53.4068 29.0866 53.5377 28.5624 53.5159 28.5296C53.4941 28.4968 53.1997 28.7098 52.8725 29.0047C52.0548 29.742 50.9862 30.3645 50.3102 30.4956C47.5297 31.0526 48.0858 25.5807 51.2697 20.8787C52.9053 18.4704 54.6063 17.0615 56.6998 16.3734C58.2917 15.8491 60.298 15.4068 60.298 15.5706ZM49.9939 16.0621C51.1061 16.7666 51.0734 19.306 49.9394 21.8126C48.6964 24.5649 46.3957 26.3834 44.7928 25.8756C44.4766 25.7773 44.1931 25.7281 44.1713 25.7609C44.0623 25.9083 44.4657 27.0551 44.7274 27.35C45.1308 27.8088 46.0904 27.8907 47.0281 27.563C47.4425 27.4156 47.7914 27.3009 47.8241 27.3009C47.9549 27.3009 47.8241 27.9398 47.4315 29.0866L47.0063 30.3809L46.2648 30.512C45.1308 30.6922 43.2118 30.4956 42.6012 30.1352C41.7289 29.6109 41.1073 28.4805 41.1073 27.4156C41.1073 26.1377 41.9469 23.1068 42.7974 21.3211C43.7679 19.2732 45.6978 17.127 47.3879 16.2423C48.2602 15.7836 49.4051 15.7017 49.9939 16.0621ZM43.6806 17.8315C43.3535 18.7653 42.6666 20.6657 42.1432 22.0583L41.2055 24.5977L41.2709 22.9594C41.3036 22.0583 41.369 21.0753 41.4017 20.764C41.4563 20.2726 41.4454 20.2398 41.26 20.3872C41.1401 20.4855 40.6058 21.2555 40.0715 22.0911C39.1338 23.5655 39.0356 23.7785 37.9998 26.9077C37.4001 28.6934 36.8985 30.2007 36.8767 30.2498C36.8112 30.3973 34.118 30.6758 34.0635 30.5447C34.0308 30.4792 34.4124 29.2996 34.9031 27.9234C36.6259 23.1232 37.182 21.5013 37.1384 21.4521C37.1056 21.3866 36.5823 21.5668 35.9607 21.8289C35.3283 22.1075 36.2879 20.4036 37.3891 19.2896C38.1197 18.5523 40.2896 16.9304 40.4422 17.0123C40.4967 17.0287 40.4531 17.4711 40.3441 17.9953L40.1478 18.9455L40.4967 18.5196C41.7725 16.9632 41.9469 16.8157 42.8629 16.5045C44.4112 15.9802 44.3676 15.8983 43.6806 17.8315ZM78.9435 16.4717C78.7364 16.6355 78.442 16.8321 78.2893 16.8976C77.8532 17.0942 78.1694 16.701 78.671 16.4225C79.2707 16.0949 79.4015 16.1113 78.9435 16.4717ZM76.7519 19.4206C76.6865 19.7155 76.6101 19.9121 76.5883 19.8794C76.5665 19.8466 76.5992 19.5845 76.6646 19.2896C76.7301 18.9947 76.8064 18.7981 76.8282 18.8308C76.85 18.8636 76.8173 19.1257 76.7519 19.4206ZM76.2285 21.5504C75.8687 22.9921 75.5743 23.926 75.5089 23.8277C75.4761 23.7949 75.6942 22.943 75.9777 21.9272C76.2503 20.9279 76.5011 20.1251 76.512 20.1579C76.5338 20.1906 76.403 20.8132 76.2285 21.5504ZM18.2312 21.6979C18.0676 22.173 17.8931 22.5498 17.8495 22.5498C17.795 22.5498 17.8822 22.2058 18.0458 21.7634C18.2203 21.3375 18.3729 20.9279 18.3947 20.8623C18.4274 20.7804 18.471 20.7477 18.4929 20.7968C18.5147 20.8296 18.3947 21.2392 18.2312 21.6979ZM17.4352 23.8113C17.3152 24.3028 16.5847 26.1541 16.5193 26.1541C16.432 26.1541 16.6174 25.5643 17.0426 24.4666C17.5006 23.287 17.6205 23.0904 17.4352 23.8113ZM75.2472 25.0564C75.1708 25.3513 75.1708 25.4987 75.269 25.5643C75.3453 25.597 75.2908 25.6462 75.1599 25.6462C74.8655 25.6626 74.8546 25.6298 75.0836 24.9909C75.2799 24.4011 75.3998 24.4502 75.2472 25.0564ZM78.6055 25.8756C77.5588 27.2026 77.2971 27.4811 77.1989 27.4319C77.1335 27.3992 77.4061 27.006 77.8204 26.5636L78.5619 25.7445L77.3625 25.6462L76.1631 25.5643L77.526 25.5315L78.889 25.5151L78.6055 25.8756ZM76.6865 28.0381C76.5774 28.2511 76.4139 28.4313 76.3266 28.4477C76.2285 28.4477 76.2939 28.2839 76.4902 28.0381C76.9045 27.5302 76.9263 27.5302 76.6865 28.0381ZM85.7039 28.4313C85.6167 28.4968 83.7739 28.4968 81.615 28.4477L77.6896 28.3494L81.7785 28.3166C84.0247 28.3166 85.7911 28.3658 85.7039 28.4313ZM87.732 28.8573C87.503 29.1194 87.3831 29.0703 87.503 28.7917C87.5357 28.6934 87.6557 28.6115 87.7538 28.6115C87.9174 28.6279 87.9174 28.6443 87.732 28.8573ZM14.3385 29.2668C14.3058 29.3488 14.2077 29.4307 14.1422 29.4307C14.0659 29.4307 14.0768 29.3651 14.1749 29.2668C14.3821 29.0703 14.4257 29.0703 14.3385 29.2668ZM15.1345 29.2177C15.0254 29.2505 14.8292 29.2505 14.6983 29.2177C14.5566 29.1849 14.6438 29.1522 14.8837 29.1522C15.1236 29.1358 15.2326 29.1686 15.1345 29.2177ZM87.1323 29.4307C86.8924 29.742 86.6852 29.8566 86.6852 29.6764C86.6852 29.5945 87.2413 29.1194 87.3395 29.1194C87.3722 29.1194 87.2741 29.2668 87.1323 29.4307ZM13.9569 30.4464C13.9569 31.9209 13.8914 32.2486 13.597 32.5271C13.3572 32.7564 13.3572 32.7564 13.5643 32.396C13.7497 32.0847 13.7824 31.8226 13.7497 30.6594C13.7388 29.7583 13.7606 29.2668 13.8369 29.2668C13.9133 29.2668 13.9569 29.7256 13.9569 30.4464ZM86.031 30.3154C86.031 30.43 84.7008 31.5769 84.6462 31.5113C84.6244 31.4622 84.9079 31.1673 85.2896 30.856C86.0201 30.2171 86.031 30.2171 86.031 30.3154ZM60.8868 30.6103C60.8323 30.7249 60.527 31.4458 60.189 32.2158C59.8401 32.9858 59.513 33.7722 59.4366 33.9852L59.3058 34.362L59.9382 34.2637C61.1812 34.0835 63.1875 33.8541 63.5147 33.8705C63.7545 33.8705 63.1875 34.362 61.3339 35.7382C59.96 36.7703 58.5316 37.7533 58.1718 37.9499C57.812 38.1301 57.4631 38.3431 57.3976 38.4086C57.1686 38.6216 54.8461 44.028 54.8461 44.3229C54.8461 45.0437 55.5113 45.2239 57.1359 44.9946C57.812 44.8799 58.379 44.8307 58.4008 44.8799C58.4226 44.9127 58.2263 45.5188 57.9537 46.2397C57.6811 46.9442 57.4303 47.6486 57.4085 47.7961C57.3758 47.9435 57.1905 48.1074 57.0051 48.1729C56.449 48.3367 52.3165 48.2876 51.8803 48.1074C51.3569 47.878 51.1388 47.4029 51.1388 46.4691C51.1388 45.5025 51.4551 44.585 52.7308 41.9146C53.3087 40.7186 53.7558 39.7029 53.7339 39.6537C53.6794 39.5882 51.9566 39.8831 51.6622 40.0141C51.2152 40.2107 51.575 39.8011 53.4614 37.9499L55.4458 36.0003L55.9365 34.6077L56.4272 33.1988L56.0128 32.6909C55.7839 32.4124 55.6312 32.1175 55.6857 32.0356C55.7293 31.9701 56.6562 31.6424 57.7356 31.3311C58.8151 31.0198 59.9164 30.6758 60.189 30.5939C60.8977 30.3809 60.9741 30.3809 60.8868 30.6103ZM40.6276 30.9543C40.5076 31.069 39.7226 31.9209 38.883 32.8711C37.5854 34.3292 37.3019 34.7388 37.0729 35.4105C36.8331 36.1641 34.2489 43.6839 33.4093 46.125C33.213 46.6984 33.0712 47.2391 33.104 47.3046C33.1367 47.3865 33.3984 47.452 33.7037 47.452C34.2161 47.452 34.2379 47.4684 34.2379 47.8944C34.2379 48.5497 34.1616 48.648 33.2675 49.3361C32.079 50.2208 30.7487 51.5642 30.3235 52.285C30.1163 52.6455 29.7892 53.4482 29.5929 54.0872L29.244 55.2667L27.5103 55.9385C25.7548 56.6265 25.5149 56.7085 25.5149 56.5282C25.5149 56.4463 25.8747 55.4961 26.7688 53.1861C26.9651 52.6946 27.3249 51.6952 27.5866 50.9744C27.8483 50.2535 28.7097 47.9108 29.5166 45.7646C30.3126 43.6184 30.9668 41.8326 30.9668 41.7835C30.9668 41.7344 30.6397 42.1112 30.2362 42.6518C29.2658 43.9133 27.9246 45.4205 27.0414 46.2561C26.2673 46.9769 24.0647 48.7627 23.9557 48.7627C23.912 48.7627 23.8793 47.4029 23.8793 45.7318V42.7173L23.4105 43.4873C22.8326 44.4376 20.9789 47.6814 20.5973 48.4023C20.2702 49.0412 19.8231 49.2378 16.781 50.1552C14.8946 50.7286 11.6453 51.5478 11.5798 51.4659C11.558 51.4331 12.0814 51.0072 12.7247 50.4829C14.2295 49.3033 16.7482 46.7803 17.6642 45.568C18.7218 44.1427 21.0552 40.735 22.3964 38.638L23.5958 36.7539L23.2687 36.5573L22.9525 36.3443L23.3887 36.0658C24.4027 35.4105 26.8888 33.4773 27.881 32.5762C29.0586 31.5113 29.5057 31.2164 29.4185 31.5769C29.2331 32.2977 27.6957 39.9486 27.6957 40.1452C27.6957 40.2926 29.3203 38.2939 31.97 34.8862C33.1258 33.3954 34.1725 32.0847 34.2925 31.9701C34.4669 31.7898 37.629 31.2 40.1805 30.856C40.4204 30.8232 40.6712 30.7905 40.7257 30.7741C40.7911 30.7741 40.7366 30.856 40.6276 30.9543ZM77.7441 31.1509C77.7441 31.282 77.6678 31.3966 77.5697 31.3966C77.417 31.3966 77.4061 31.5113 77.4606 32.1339C77.526 32.7401 77.5042 32.8711 77.3734 32.8711C77.2426 32.8711 77.1989 32.6909 77.1989 32.1339C77.1989 31.5932 77.1553 31.3966 77.0354 31.3966C76.9482 31.3966 76.8718 31.282 76.8718 31.1509C76.8718 30.9707 76.9918 30.9052 77.308 30.9052C77.6242 30.9052 77.7441 30.9707 77.7441 31.1509ZM78.9217 31.1837C78.9435 31.3147 78.8672 31.3966 78.7255 31.3966C78.5074 31.3966 78.4965 31.4622 78.5292 32.0847C78.5401 32.4779 78.5183 32.822 78.4529 32.8711C78.3875 32.9203 78.3329 32.6254 78.3111 32.1666C78.2893 31.626 78.2348 31.3966 78.1149 31.3966C78.0385 31.3966 77.9622 31.282 77.9622 31.1345C77.9622 30.9379 78.0603 30.9052 78.4202 30.9379C78.671 30.9707 78.889 31.0854 78.9217 31.1837ZM79.576 31.3147C79.6523 32.0683 79.7286 32.1339 79.8486 31.5605C79.9249 31.2492 80.0666 30.9707 80.1757 30.9379C80.3392 30.8888 80.361 31.0198 80.361 31.8718C80.361 32.9039 80.2084 33.3135 80.0557 32.6909C79.9794 32.3796 79.9467 32.3632 79.8922 32.5926C79.794 33.0022 79.4887 32.9367 79.4778 32.4943L79.456 32.1339L79.4124 32.4943C79.3906 32.7073 79.2925 32.8711 79.2052 32.8711C79.0853 32.8711 79.0526 32.6254 79.0526 31.8718C79.0526 30.9379 79.0635 30.8888 79.2925 30.9379C79.4451 30.9707 79.5542 31.1181 79.576 31.3147ZM84.0901 32.0192C83.7957 32.3632 82.4437 33.4773 82.5636 33.2971C82.6399 33.1496 84.2101 31.7407 84.2864 31.7407C84.3191 31.7407 84.2319 31.8554 84.0901 32.0192ZM12.9755 33.1005C12.9755 33.2315 10.6639 35.6726 10.6094 35.6071C10.5549 35.5088 10.9801 35.0173 12.1032 33.8705C12.9428 33.0186 12.9755 32.9858 12.9755 33.1005ZM77.417 33.592C77.417 33.723 77.188 34.706 76.9154 35.7709C75.7269 40.4237 75.6288 40.9807 75.836 42.2914L75.9123 42.7992L74.3421 43.3071C73.4916 43.5856 72.772 43.7986 72.7502 43.7658C72.6848 43.6675 73.0446 40.8005 73.2627 39.752C73.3826 39.1786 73.4589 38.6707 73.4371 38.638C73.3717 38.5397 72.0305 40.1943 71.5071 41.0135C71.2891 41.3575 70.842 42.3405 70.5149 43.1924C70.1878 44.0444 69.6208 45.5352 69.2392 46.5018L68.5522 48.2712H67.1456H65.7281L66.2515 46.8295C67.1129 44.4539 68.923 39.7029 69.1628 39.195L69.3918 38.7199L68.9884 38.8182C68.7594 38.8673 68.5849 38.8509 68.5849 38.7526C68.5849 38.6707 68.7812 38.0318 69.0211 37.3273L69.4463 36.0658L70.7875 35.2794C72.1396 34.493 73.6007 33.805 73.6007 33.9524C73.6007 34.0016 73.4044 34.5422 73.1645 35.1647C72.9246 35.7873 72.7284 36.3607 72.7284 36.459C72.7284 36.5573 73.0664 36.2133 73.4916 35.689C74.2331 34.7552 75.2908 33.7886 75.8796 33.5264C76.0322 33.4445 76.4466 33.379 76.7955 33.379C77.2644 33.3626 77.417 33.4118 77.417 33.592ZM67.4182 33.8705C67.6472 33.9524 67.9852 34.2473 68.1815 34.5094C68.5195 34.9518 68.5304 35.0337 68.5304 36.1805C68.5304 37.2618 68.4868 37.5403 68.1052 38.6871C67.0475 41.8982 64.6705 44.0771 62.5551 43.7822L61.8246 43.6839L61.9881 44.2737C62.0754 44.6014 62.1517 44.8963 62.1517 44.929C62.1517 44.9618 62.3043 45.1093 62.4788 45.2403C63.024 45.6663 64.0599 45.7154 64.9649 45.355C65.9135 44.9946 65.9135 44.9946 65.401 46.9442L65.063 48.2712H63.1439C60.985 48.2712 60.1999 48.0746 59.4803 47.321C58.8369 46.6493 58.6407 45.9776 58.6952 44.5686C58.7606 42.8156 59.5348 40.6531 60.8759 38.4905C62.1626 36.4099 63.9181 34.7388 65.5428 34.0343C66.3715 33.6739 66.8512 33.6247 67.4182 33.8705ZM81.953 33.936C81.8331 34.0671 81.6804 34.1818 81.6259 34.1818C81.5605 34.1818 81.6041 34.0671 81.7131 33.936C81.8331 33.805 81.9857 33.6903 82.0402 33.6903C82.1057 33.6903 82.062 33.805 81.953 33.936ZM54.3882 34.2801C54.5299 34.3456 54.6063 34.4439 54.5517 34.493C54.5081 34.5422 54.0611 35.2958 53.5704 36.1477C52.4473 38.1137 52.0984 38.6216 51.3787 39.2441C51.0625 39.5226 50.779 39.752 50.7572 39.752C50.7354 39.752 50.8881 39.2605 51.0843 38.6543C51.2806 38.0482 51.4223 37.4748 51.3896 37.3928C51.2915 37.1635 49.8413 37.4256 49.3179 37.786C48.5983 38.2611 48.6528 38.6216 49.7213 40.735C50.4301 42.1275 50.6482 42.9467 50.5391 43.815C50.332 45.5844 49.2198 46.9933 47.2571 47.9763C46.592 48.304 46.2976 48.3531 44.7383 48.3531C43.7679 48.3531 42.9392 48.304 42.8956 48.2384C42.841 48.1401 44.0514 44.1263 44.2258 43.8641C44.2476 43.815 44.4439 44.0935 44.6511 44.4539C44.9564 44.9946 45.1199 45.1256 45.5234 45.2239C46.134 45.3386 46.9082 45.0765 47.159 44.6669C47.3116 44.4048 47.3225 44.3065 47.1808 43.8314C47.0935 43.5201 46.8209 42.8975 46.5811 42.4224C45.8178 40.9807 45.6869 40.5712 45.6869 39.6046C45.6869 36.8194 47.5624 34.7224 50.5391 34.1981C51.4332 34.0343 53.9302 34.0998 54.3882 34.2801ZM45.8287 34.3128L46.3412 34.4275L45.6542 36.2296C44.9237 38.1137 44.7819 38.556 43.0918 44.5031L42.0342 48.1893L40.7039 48.2384C39.9624 48.2548 39.3627 48.2548 39.3627 48.2057C39.3627 48.1729 39.4609 47.7961 39.5808 47.3865C39.6898 46.9769 39.7662 46.6329 39.7444 46.6329C39.7117 46.6329 39.2646 46.9605 38.7412 47.3701C36.6913 48.9593 35.0666 48.9429 34.7613 47.3537C34.6196 46.6329 34.7504 45.2567 35.0993 43.9297C36.0916 40.096 38.9375 36.0822 41.6089 34.7716C42.4921 34.3456 44.7601 34.0998 45.8287 34.3128ZM81.2879 34.493C81.1134 34.7388 79.6414 35.8856 79.7722 35.689C79.8704 35.5088 81.2224 34.362 81.3424 34.3456C81.3642 34.3456 81.3424 34.4111 81.2879 34.493ZM79.4451 36.5082C79.3688 36.8031 79.2161 37.4092 79.118 37.8352C79.009 38.2775 78.8999 38.5888 78.8781 38.556C78.8236 38.4905 79.1943 36.8358 79.3688 36.3279C79.5651 35.8037 79.6087 35.9184 79.4451 36.5082ZM10.1405 36.2296C10.1405 36.2624 10.0315 36.3771 9.90065 36.4754C9.66077 36.6556 9.66077 36.6392 9.85704 36.4099C10.086 36.1313 10.1405 36.0986 10.1405 36.2296ZM9.48631 36.8686C9.32275 37.1143 8.46135 38.0154 6.8694 39.6046C6.42234 40.0633 5.95348 40.5548 5.84444 40.7022C5.64817 40.9643 5.64817 40.9643 5.76811 40.6039C5.84444 40.3909 6.0298 40.1616 6.18246 40.0633C6.33511 39.9814 6.61861 39.7192 6.80397 39.4899C7.66537 38.4577 8.15605 37.9171 8.55949 37.6222C8.79937 37.442 9.11558 37.1471 9.26823 36.9669C9.58444 36.5901 9.71529 36.5409 9.48631 36.8686ZM78.7582 39.0148C78.7255 39.1622 78.671 39.2441 78.6491 39.195C78.6164 39.1458 78.6273 39.0475 78.671 38.9492C78.7691 38.6871 78.8345 38.7363 78.7582 39.0148ZM78.5292 39.9486C78.442 40.0797 78.4311 40.0141 78.4747 39.7356C78.5183 39.5226 78.5619 39.4407 78.5946 39.5718C78.6164 39.6865 78.5837 39.8667 78.5292 39.9486ZM5.56094 40.9643C5.56094 40.9971 5.10298 41.4886 4.55779 42.062C4.0017 42.6354 3.60916 42.9631 3.69639 42.8156C3.83814 42.5535 5.40829 40.8988 5.51732 40.8988C5.53913 40.8988 5.56094 40.9316 5.56094 40.9643ZM78.7691 43.3727C79.3143 45.011 79.3143 45.0273 78.4529 45.2239C78.1367 45.3059 78.0712 45.2895 78.2348 45.1748C78.3547 45.0929 78.5619 45.011 78.6928 45.011C79.0308 44.9946 79.0853 44.7488 78.889 44.1754C78.8018 43.9133 78.7364 43.6512 78.7473 43.6184C78.7691 43.5856 78.7037 43.4218 78.6055 43.258C78.322 42.7829 77.8968 41.4231 78.104 41.6852C78.2021 41.8163 78.4965 42.5699 78.7691 43.3727ZM15.4834 43.0941C15.4834 43.1269 15.4071 43.1924 15.3198 43.258C15.2326 43.3071 15.1563 43.2744 15.1563 43.1924C15.1563 43.0941 15.2326 43.0286 15.3198 43.0286C15.4071 43.0286 15.4834 43.0614 15.4834 43.0941ZM14.3712 43.5201C14.2077 43.5856 13.8151 43.6839 13.4989 43.7331L12.921 43.8314L13.5207 43.6184C13.8478 43.4873 14.2404 43.389 14.393 43.389H14.6656L14.3712 43.5201ZM2.45336 44.1754C2.34432 44.3556 2.18076 44.5031 2.08263 44.5031C1.97359 44.5031 2.02811 44.372 2.23528 44.1754C2.64962 43.7658 2.70414 43.7658 2.45336 44.1754ZM12.6811 43.9624C12.6048 43.9952 12.4521 43.9952 12.354 43.9624C12.245 43.9133 12.3104 43.8805 12.4849 43.8805C12.6702 43.8805 12.7465 43.9133 12.6811 43.9624ZM14.7747 44.1427C14.6656 44.2901 13.1609 45.8137 12.8992 46.0431C12.8229 46.1086 12.7575 46.125 12.7575 46.0922C12.7575 46.0431 13.1282 45.6335 13.5752 45.1748C14.0223 44.7161 14.4148 44.2573 14.4475 44.1754C14.4803 44.0771 14.6002 44.0116 14.6983 44.0116C14.7965 44.0116 14.8292 44.0607 14.7747 44.1427ZM3.45651 44.6178C3.23843 44.6505 2.88951 44.6505 2.69324 44.6178C2.50787 44.585 2.69324 44.5522 3.10758 44.5522C3.53283 44.5522 3.68549 44.585 3.45651 44.6178ZM7.30555 44.6669C7.4473 44.798 7.4473 44.8307 7.28374 44.8307C7.18561 44.8307 7.06567 44.7488 7.03295 44.6669C6.94572 44.4539 7.08747 44.4539 7.30555 44.6669ZM77.8532 45.4697C77.5806 45.699 75.6833 46.5018 75.5525 46.4363C75.487 46.4035 75.9668 46.1414 76.621 45.8629C77.8641 45.3222 78.1258 45.2403 77.8532 45.4697ZM74.8546 46.8459C74.582 47.1244 73.8951 47.3537 73.9823 47.1244C74.0477 46.9605 74.6038 46.682 74.9091 46.6493C75.0182 46.6329 74.9964 46.6984 74.8546 46.8459ZM12.1032 46.9114C12.1032 46.9933 11.9506 47.1735 11.7761 47.321C11.3945 47.6486 11.3291 47.4357 11.6889 47.0588C11.9506 46.7803 12.1032 46.7312 12.1032 46.9114ZM11.0128 47.9271C11.0128 48.0091 10.8493 48.222 10.653 48.4023C10.4458 48.5825 10.1514 48.8446 9.99879 49.0084C9.44269 49.5491 9.70439 49.1231 10.3259 48.4514C11.0237 47.7142 11.0128 47.7142 11.0128 47.9271ZM78.7037 48.0254C78.7364 48.0746 77.2207 48.091 75.3344 48.091C73.448 48.0746 72.1069 48.0091 72.3467 47.9599C72.8483 47.8452 78.6273 47.9108 78.7037 48.0254ZM79.9249 48.1401C79.8377 48.2548 79.6959 48.4678 79.6087 48.5988C79.4887 48.8118 79.4778 48.7954 79.5323 48.4842C79.5978 48.1729 79.5651 48.1237 79.1943 48.0582C78.889 48.0091 78.9545 47.9927 79.4342 47.9763C79.9576 47.9435 80.0448 47.9763 79.9249 48.1401ZM79.1616 49.4344C79.0853 49.6146 79.009 49.7293 78.9763 49.6801C78.9435 49.631 78.9763 49.4835 79.0526 49.3361C79.2488 48.992 79.3034 49.0248 79.1616 49.4344ZM9.59535 49.3361C9.59535 49.3852 9.31185 49.6965 8.97383 50.0242C8.62491 50.3518 7.87255 51.0727 7.30555 51.6297C5.41919 53.481 2.99855 55.7582 2.72595 55.9548C2.46426 56.1351 2.46426 56.1351 2.67143 55.8893C2.96583 55.5453 5.17931 53.3827 5.76811 52.8584C6.0189 52.6291 6.78217 51.9082 7.4473 51.2529C8.5922 50.1225 9.50812 49.2542 9.57354 49.2542C9.58444 49.2542 9.59535 49.2869 9.59535 49.3361ZM78.6164 50.532C78.6164 50.614 78.4638 50.8761 78.2784 51.1546L77.9295 51.6297L78.1912 51.0235C78.442 50.4337 78.6164 50.2372 78.6164 50.532ZM22.2983 51.171C22.2656 51.4331 22.1783 51.6952 22.1238 51.7935C22.0148 51.941 22.0911 51.171 22.2111 50.8433C22.3201 50.5648 22.3746 50.7614 22.2983 51.171ZM35.2193 51.6297C35.2956 52.0393 35.3937 52.367 35.4374 52.367C35.481 52.367 35.7645 52.0393 36.0698 51.6297C36.5059 51.0399 36.6913 50.8925 37.0184 50.8925C37.4873 50.8925 37.52 50.6303 36.7131 53.4646C36.157 55.4633 36.1461 55.4797 35.7972 55.4797C35.6009 55.4797 35.4374 55.4633 35.4374 55.4306C35.4374 55.3978 35.5573 54.9063 35.7209 54.3493C35.8735 53.7759 35.9717 53.2844 35.9607 53.2516C35.9389 53.2189 35.6991 53.5301 35.4374 53.9233C35.1648 54.3165 34.914 54.6442 34.8704 54.6606C34.8268 54.6606 34.7613 54.3984 34.7177 54.0872C34.685 53.7759 34.6087 53.4646 34.5542 53.4155C34.4996 53.3827 34.3143 53.825 34.1398 54.4148C33.8454 55.3814 33.7909 55.4797 33.4856 55.4797C33.3002 55.4797 33.1476 55.4306 33.1476 55.3487C33.1476 55.2831 33.4202 54.251 33.7582 53.055C34.3688 50.9252 34.3797 50.8925 34.7286 50.8925C35.0557 50.8925 35.0884 50.958 35.2193 51.6297ZM40.2132 51.0891C40.4531 51.4495 40.3659 53.1697 40.0497 54.3657C39.7553 55.4306 39.7226 55.4797 39.3736 55.4797C38.992 55.4797 38.9811 55.4142 39.1992 54.6114C39.2646 54.3657 39.2101 54.3329 38.7194 54.3329C38.1742 54.3329 38.1415 54.3493 37.9889 54.9063C37.8689 55.365 37.7708 55.4797 37.5309 55.4797C37.3564 55.4797 37.1929 55.4306 37.1493 55.3814C37.1166 55.3159 37.2692 54.7097 37.5091 54.0216C37.978 52.6127 38.8066 51.1218 39.1774 51.0072C39.668 50.8597 40.0824 50.8925 40.2132 51.0891ZM43.9423 51.0563C43.9423 51.1382 43.8878 51.4003 43.8115 51.6297C43.7024 51.9738 43.6152 52.0393 43.19 52.0393H42.6884L42.2086 53.7595C41.7725 55.3323 41.7071 55.4797 41.4345 55.4797C41.2709 55.4797 41.1182 55.4306 41.0855 55.3814C41.0419 55.3323 41.2273 54.5623 41.489 53.6612L41.9687 52.0393H41.6089C41.1401 52.0393 41.0855 51.9246 41.2818 51.3676L41.4454 50.8925H42.6884C43.408 50.8925 43.9423 50.958 43.9423 51.0563ZM47.2135 50.9744C47.2135 51.0399 47.1371 51.2857 47.0499 51.5478C46.8864 52.0229 46.8536 52.0393 46.0577 52.0393H45.2399L44.9673 52.9567C44.8146 53.4646 44.6838 53.9561 44.6729 54.0708C44.662 54.1855 44.9346 54.2838 45.4362 54.3329L46.2321 54.4148L46.0141 54.9391C45.796 55.4797 45.796 55.4797 44.9455 55.4797C44.2258 55.4797 44.0514 55.4306 43.8878 55.1521C43.6479 54.7589 43.7024 54.3657 44.3022 52.5635C44.5639 51.7444 44.8364 51.1382 44.9673 51.0563C45.2181 50.8925 47.2135 50.8433 47.2135 50.9744ZM48.849 51.0891C48.8381 51.2038 48.7727 51.4823 48.6855 51.7116C48.4347 52.367 48.4783 52.6946 48.8272 52.6946C49.4269 52.6946 49.6123 52.5144 49.8413 51.6952C50.0594 50.958 50.103 50.8925 50.441 50.8925C50.6482 50.8925 50.8117 50.9416 50.8117 51.0235C50.8117 51.171 49.9394 54.2019 49.6777 54.9391C49.536 55.365 49.4269 55.4797 49.1762 55.4797C48.9908 55.4797 48.849 55.447 48.849 55.4142C48.849 55.3814 48.9472 55.0046 49.0671 54.5787C49.1871 54.1527 49.2852 53.7759 49.2852 53.7431C49.2852 53.7104 49.0235 53.6776 48.6964 53.6776H48.1076L47.8677 54.5787C47.6387 55.4306 47.606 55.4797 47.2462 55.4797C46.7882 55.4797 46.7664 55.6272 47.5624 52.9076C48.1294 50.9252 48.1512 50.8925 48.5001 50.8925C48.7073 50.8925 48.849 50.9744 48.849 51.0891ZM56.1328 51.0891C56.3291 51.384 56.2963 51.7608 55.991 52.4325C55.8057 52.8257 55.7402 53.1697 55.7839 53.4155C55.8602 53.907 55.4567 54.9227 55.0533 55.234C54.7371 55.4797 52.6654 55.5944 52.6654 55.365C52.6654 55.3159 52.938 54.2838 53.2869 53.0714L53.8975 50.8925H54.9552C55.6203 50.8925 56.0456 50.958 56.1328 51.0891ZM58.1173 50.9744C58.1173 51.0235 57.921 51.7608 57.6811 52.6291C57.4412 53.4974 57.245 54.2346 57.245 54.2838C57.245 54.3165 57.5067 54.3329 57.812 54.3001L58.379 54.251L58.8805 52.5635C59.3603 50.9416 59.3821 50.8925 59.7201 50.8925C59.9164 50.8925 60.08 50.9416 60.08 51.0072C60.08 51.2365 58.9569 54.9227 58.7933 55.1848C58.6625 55.4306 58.4444 55.4797 57.6266 55.4797C56.1437 55.4797 56.1328 55.4142 56.9506 52.5308C57.3976 50.9252 57.4085 50.8925 57.7575 50.8925C57.9537 50.8925 58.1173 50.9252 58.1173 50.9744ZM63.5692 50.9744C63.5692 51.0072 63.5147 51.2365 63.4383 51.4659C63.3293 51.8427 63.2639 51.8755 62.5224 51.8755C61.9445 51.8755 61.6828 51.941 61.5629 52.1376C61.2576 52.5799 61.3666 52.6946 62.0972 52.6946C62.6533 52.6946 62.8277 52.7601 62.8822 52.9567C62.9804 53.3335 62.7296 54.4148 62.4352 54.9391C62.1844 55.3814 62.1299 55.3978 60.9632 55.447C60.298 55.4797 59.7528 55.4633 59.7528 55.3978C59.7528 55.3487 59.8292 55.0865 59.9164 54.8244C60.08 54.3657 60.1127 54.3493 60.985 54.3001C61.6937 54.2674 61.8791 54.2019 61.8791 54.0053C61.8791 53.8414 61.781 53.7759 61.6065 53.7923C61.094 53.8578 60.6797 53.6776 60.5379 53.3335C60.4071 53.0387 60.4289 52.8748 60.6688 52.1376C60.8214 51.6625 61.0613 51.1874 61.1922 51.0891C61.432 50.9252 63.5692 50.8106 63.5692 50.9744ZM66.9494 51.0891C66.9385 51.5969 66.5677 52.0229 66.0989 52.0721L65.6191 52.1212L65.172 53.7923C64.725 55.447 64.7141 55.4797 64.3652 55.4797C64.1689 55.4797 64.0053 55.4142 64.0053 55.3159C64.0053 55.234 64.2016 54.5131 64.4415 53.7431C64.6814 52.9567 64.8776 52.2523 64.8776 52.1867C64.8776 52.1048 64.7032 52.0393 64.496 52.0393C64.0817 52.0393 64.0599 51.9574 64.2234 51.3184C64.3215 50.8925 64.3324 50.8925 65.6409 50.8925C66.6113 50.8925 66.9494 50.9416 66.9494 51.0891ZM70.2205 51.0072C70.2096 51.3512 69.8934 51.9574 69.708 51.9738C69.599 51.9738 69.2064 51.9901 68.8466 52.0065C68.2796 52.0393 68.1706 52.0884 68.1161 52.367C68.0615 52.6618 68.1161 52.6946 68.7158 52.6946C69.0756 52.6946 69.3482 52.7438 69.3264 52.8093C68.9775 53.8906 69.032 53.8414 68.2905 53.8414C67.7671 53.8414 67.6036 53.8906 67.6036 54.0872C67.6036 54.2674 67.789 54.3329 68.3996 54.3657L69.2064 54.4148L69.0538 54.9391L68.912 55.4797H67.8871C66.4042 55.4797 66.3606 55.3159 67.1674 52.8093C67.778 50.9416 67.8326 50.8925 69.141 50.8925C69.7298 50.8925 70.2205 50.9416 70.2205 51.0072ZM73.4153 51.2365C73.5898 51.6461 73.4044 52.367 72.9901 52.9404C72.6193 53.4482 72.5103 53.8414 72.7393 53.8414C72.8919 53.8414 72.7829 54.595 72.5539 55.1029C72.3358 55.6108 71.747 55.6272 71.747 55.1357C71.747 54.9555 71.8016 54.6442 71.867 54.464C72.0087 54.0708 71.9215 53.9233 71.4635 53.7923C71.1473 53.7104 71.1146 53.7431 70.842 54.595C70.5803 55.3814 70.5149 55.4797 70.2205 55.4797C70.046 55.4797 69.8934 55.4142 69.8934 55.3487C69.8934 55.2831 70.1333 54.3821 70.4168 53.3499C70.7112 52.3178 70.9729 51.3348 71.0165 51.171C71.0819 50.9089 71.2127 50.8925 72.1941 50.9252C73.0664 50.958 73.3281 51.0235 73.4153 51.2365ZM24.141 52.9731C23.7594 54.038 23.1379 55.7746 22.7671 56.8231C22.3964 57.8717 22.0693 58.7072 22.0475 58.6744C21.993 58.5925 22.56 56.7412 22.6799 56.6265C22.7235 56.5774 22.9743 55.8729 23.2251 55.0702C23.4759 54.251 23.8575 53.1697 24.0647 52.6455C24.2719 52.1212 24.4245 51.6625 24.3918 51.6133C24.37 51.5642 23.9666 51.7608 23.4977 52.0393C23.0288 52.3178 22.6363 52.5144 22.6036 52.4816C22.5818 52.4325 22.7453 52.285 22.9743 52.154C23.2033 52.0065 23.6831 51.7116 24.0429 51.4823C24.4027 51.2529 24.7298 51.0563 24.7734 51.0563C24.8062 51.0563 24.5227 51.9246 24.141 52.9731ZM77.7223 52.2359C77.7005 52.3342 77.5588 52.5308 77.417 52.6782L77.1553 52.9404L77.3625 52.498C77.5806 52.0393 77.7986 51.8755 77.7223 52.2359ZM19.9213 52.3014C19.8885 52.3506 19.7904 52.367 19.7141 52.3178C19.6268 52.2687 19.6596 52.2195 19.7795 52.2195C19.8994 52.2031 19.9649 52.2523 19.9213 52.3014ZM19.3543 52.5308C19.2343 52.6127 19.0599 52.6782 18.9726 52.6782C18.8745 52.6782 18.8854 52.6127 19.0271 52.5308C19.1471 52.4489 19.3215 52.3833 19.4088 52.3833C19.5069 52.3833 19.496 52.4489 19.3543 52.5308ZM18.7218 52.7929C18.6891 52.8421 18.591 52.8584 18.5147 52.8093C18.4274 52.7601 18.4601 52.711 18.5801 52.711C18.7 52.6946 18.7654 52.7438 18.7218 52.7929ZM18.2857 52.9567C18.253 53.0059 18.1548 53.0223 18.0785 52.9731C17.9913 52.924 18.024 52.8748 18.1439 52.8748C18.2639 52.8584 18.3293 52.9076 18.2857 52.9567ZM17.7514 53.1861C17.5333 53.3827 15.6252 54.0053 14.9382 54.1036C14.6656 54.1363 14.8946 54.0216 15.4289 53.8414C15.9741 53.6612 16.7046 53.3991 17.0645 53.2844C17.8713 53.0059 17.9913 52.9895 17.7514 53.1861ZM76.9591 53.5138C76.8827 53.6776 76.8064 53.7923 76.7737 53.7595C76.7301 53.694 76.97 53.1861 77.0463 53.1861C77.0681 53.1861 77.0354 53.3335 76.9591 53.5138ZM14.2077 54.2838C14.1313 54.3165 14.0005 54.3165 13.9351 54.2838C13.8587 54.2346 13.9133 54.2019 14.0659 54.2019C14.2186 54.2019 14.2731 54.2346 14.2077 54.2838ZM12.4303 54.7589C11.7761 54.9555 10.8166 55.0538 11.0674 54.8899C11.2418 54.7753 12.4521 54.5295 12.812 54.5295C12.9973 54.5295 12.8229 54.6278 12.4303 54.7589ZM9.48631 55.3159C8.63581 55.6272 5.88805 55.9548 6.2915 55.7091C6.43324 55.6108 9.14829 55.1848 9.59535 55.1848C9.79162 55.1848 9.76981 55.2176 9.48631 55.3159ZM77.5479 56.5282L77.7768 57.0361L77.5151 56.6265C77.3734 56.3972 77.1771 56.0695 77.0899 55.8893C76.9372 55.578 76.9372 55.578 77.1226 55.791C77.2317 55.9221 77.417 56.2497 77.5479 56.5282ZM5.17931 55.9712C4.31791 56.1351 2.90041 56.1514 3.27114 55.9876C3.42379 55.9221 4.05622 55.8565 4.68864 55.8565C5.70269 55.8402 5.75721 55.8565 5.17931 55.9712ZM78.213 57.7078L78.5292 58.2648L72.9792 58.2321L67.44 58.1829L72.8156 58.101L78.2021 58.0191L77.9622 57.5604C77.6242 56.9214 77.8532 57.0361 78.213 57.7078ZM38.1742 58.2976C38.2833 58.5106 38.3705 58.74 38.3814 58.8219C38.3814 58.9038 37.4655 58.9038 36.2879 58.8383C35.0121 58.7727 33.9981 58.7891 33.7255 58.8874C33.4638 58.9693 33.2566 58.9857 33.2566 58.9202C33.2566 58.658 34.4887 58.5597 36.2551 58.6744C37.7708 58.7727 38.0543 58.7563 38.0543 58.5597C38.0543 58.4287 37.9998 58.2485 37.9234 58.1338C37.8471 58.0191 37.8362 57.9372 37.8798 57.9372C37.9234 57.9372 38.0543 58.101 38.1742 58.2976ZM38.4577 58.0355C38.425 58.0846 38.3269 58.101 38.2505 58.0519C38.1633 58.0027 38.196 57.9536 38.316 57.9536C38.4359 57.9372 38.5013 57.9863 38.4577 58.0355ZM59.6765 58.2157C55.8929 58.2485 49.6559 58.2485 45.8287 58.2157C42.0015 58.1993 45.109 58.1829 52.7199 58.1829C60.3417 58.1829 63.471 58.1993 59.6765 58.2157ZM31.2394 58.7563C31.4466 58.8383 31.3048 58.8546 30.8578 58.8055C30.4652 58.7563 30.1272 58.6908 30.1054 58.658C30.0182 58.5434 30.9014 58.6253 31.2394 58.7563ZM29.5275 58.871C29.4185 58.9038 29.244 58.9038 29.1459 58.871C29.0368 58.8219 29.1241 58.7891 29.3312 58.7891C29.5384 58.7891 29.6256 58.8219 29.5275 58.871ZM31.9154 59.0185C31.8827 59.0676 31.7846 59.084 31.7083 59.0349C31.621 58.9857 31.6537 58.9366 31.7737 58.9366C31.8936 58.9202 31.9591 58.9693 31.9154 59.0185ZM28.0991 59.1823C28.0664 59.2314 27.9683 59.2478 27.8919 59.1987C27.8047 59.1495 27.8374 59.1004 27.9574 59.1004C28.0773 59.084 28.1427 59.1331 28.0991 59.1823ZM32.6351 59.1987C32.5588 59.2314 32.4061 59.2314 32.308 59.1987C32.1989 59.1495 32.2644 59.1168 32.4388 59.1168C32.6242 59.1168 32.7005 59.1495 32.6351 59.1987ZM26.7034 59.6574C26.5508 59.8704 21.0552 61.607 20.9571 61.4595C20.9353 61.4268 21.0116 61.1483 21.1425 60.8534L21.3824 60.3127L21.306 60.7878L21.2297 61.2466L21.7095 61.1319C21.9712 61.0827 22.5818 60.8861 23.0615 60.7223C25.6567 59.7885 26.8343 59.4444 26.7034 59.6574Z" fill="#9747FF"/>
</g>
<path d="M26.4902 20.4652C25.0118 24.302 22.9572 29.9057 23.0007 29.973C23.1094 30.1413 26.5119 27.3983 27.686 26.2035C29.0992 24.7563 30.6754 22.5855 30.8929 21.7946C31.1212 20.9195 31.0124 20.5661 30.295 19.9772C29.6862 19.4723 28.1752 18.5468 27.6099 18.328C27.3925 18.2439 27.262 18.4795 26.4902 20.4652Z" fill="#9747FF"/>
<path d="M30.4295 24.1741C30.4295 24.3731 28.6388 26.4402 27.6403 27.3741C26.1752 28.7522 24.9055 29.7321 23.2776 30.7426C21.9319 31.5847 21.5303 31.7838 21.5303 31.6307C21.5303 31.5235 22.5505 28.9053 23.4838 26.6086C23.983 25.399 24.3954 24.3578 24.4171 24.3119C24.4388 24.266 24.3194 24.2507 24.1566 24.2966C23.7117 24.4344 21.8559 24.4038 21.4218 24.266L21.0311 24.1588L20.3365 25.889C19.9567 26.8383 19.3164 28.4459 18.9148 29.4565C17.8296 32.1666 17.9489 32.0135 17.1458 31.891L16.4621 31.7991L16.3862 32.2891C16.3536 32.5647 16.321 33.1924 16.321 33.6824C16.321 34.203 16.2668 34.647 16.1908 34.7389C15.952 35.0298 13.2714 37.403 12.1428 38.3217C11.5459 38.8116 11.0358 39.2404 11.0032 39.2863C10.8947 39.4394 13.5428 38.9188 14.7474 38.5514C15.8761 38.1992 19.6094 36.5303 21.3133 35.6116C25.3179 33.4527 31.2651 28.3541 33.4357 25.2153L34 24.4038L32.7628 24.4497C31.8946 24.4956 31.3737 24.4497 30.983 24.2813C30.6791 24.1588 30.4295 24.1128 30.4295 24.1741Z" fill="#9747FF"/>
<path d="M61.5729 25.0325C61.3944 25.5173 61.0374 26.6346 60.7696 27.499C60.5019 28.3633 60.2118 29.2487 60.1226 29.4595C60.0221 29.6492 59.9775 29.8811 60.011 29.9444C60.1114 30.113 62.1084 29.6492 62.2646 29.3962C62.3427 29.2908 62.6997 28.3844 63.0456 27.4146C63.4026 26.4238 63.7596 25.5173 63.8489 25.3698C64.0385 25.0746 64.0497 24.6319 63.8823 24.4211C63.8154 24.3368 63.3357 24.2525 62.8225 24.2103L61.8853 24.1471L61.5729 25.0325Z" fill="#9747FF"/>
<path d="M71.3542 24.2473C71.3233 24.3176 70.9835 25.6244 70.5922 27.1701C70.067 29.2497 69.9229 29.9804 70.0362 29.9804C70.3965 29.9804 72.0852 29.1233 72.8678 28.5331C74.2785 27.4933 74.2888 27.4652 73.3518 27.4511C72.909 27.4511 72.5486 27.423 72.5486 27.3808C72.5486 27.3387 72.7031 26.7485 72.8884 26.074C73.084 25.3995 73.2694 24.6829 73.3106 24.4721C73.3724 24.1068 73.3621 24.0927 73.1252 24.2192C72.9811 24.2895 72.5589 24.3035 72.1367 24.2333C71.7352 24.177 71.3851 24.177 71.3542 24.2473Z" fill="#9747FF"/>
<path d="M66.388 24.3526C66.2762 24.5466 65.7175 26.7974 65.0052 29.902C64.9214 30.2901 65.8712 29.1841 66.835 27.7676C67.673 26.5646 69 24.4108 69 24.275C69 24.2556 68.4413 24.1974 67.7708 24.1586C66.8769 24.1198 66.4858 24.178 66.388 24.3526Z" fill="#9747FF"/>
<path d="M54.5236 21.2765C53.7541 22.0287 52.9327 23.3488 52.4025 24.6537C52.0697 25.498 51.893 26.4804 52.0697 26.4804C52.1841 26.4804 52.7144 26.0352 53.3278 25.4365C53.6606 25.1142 54.2324 24.6076 54.5859 24.3313C55.1786 23.8554 55.2514 23.7326 55.5529 22.7808C55.7297 22.1975 55.9064 21.4914 55.9376 21.1997L56 20.6471H55.5737C55.2618 20.6471 55.0018 20.8006 54.5236 21.2765Z" fill="#9747FF"/>
<path d="M49.7086 25.0194C49.2057 26.2607 49 27.2169 49 28.3575C49 29.1627 49.0457 29.364 49.2514 29.5821C49.9486 30.3034 51.5829 29.6324 53.3543 27.9046C54.04 27.2504 54.6343 26.7639 54.6686 26.8478C54.6914 26.9317 54.5429 27.6362 54.3143 28.4246C54.0971 29.2131 53.9143 29.9008 53.9143 29.9511C53.9143 30.0015 54.0286 29.9847 54.1771 29.9176C54.3143 29.8505 54.7257 29.666 55.0914 29.5318L55.7657 29.2634L56.3714 27.0827C56.7143 25.8749 56.9886 24.7845 57 24.6335C57 24.4155 56.8286 24.3316 56.2 24.2477C55.2171 24.0967 55.1371 24.1303 53.9829 25.2374C52.7257 26.4117 52.3829 26.6633 51.9714 26.6633C51.5143 26.6633 51.3314 26.0594 51.4914 25.0361C51.5486 24.6335 51.5714 24.2813 51.5371 24.2309C51.5029 24.1806 51.16 24.1471 50.7714 24.1471H50.0743L49.7086 25.0194Z" fill="#9747FF"/>
<path d="M47.0567 21.14C46.1552 21.8375 45.8654 22.1794 45.3395 23.2325C44.9853 23.93 44.9316 24.1078 45.0712 24.1351C45.6293 24.2856 47.2499 22.9863 47.7866 21.9743C48.0334 21.4956 48.0763 20.7434 47.8617 20.6477C47.808 20.634 47.4431 20.8528 47.0567 21.14Z" fill="#9747FF"/>
<path d="M41.4436 25.0846C41.2361 25.6361 41.0563 26.4805 41.0286 27.0837C40.9594 28.0315 41.0009 28.1866 41.3191 28.6692C42.0522 29.7549 43.2832 30.0651 46.3263 29.9617L47.4329 29.9272L47.7234 29.1862L48 28.4624H46.4646C44.2653 28.4624 43.8503 28.066 43.5737 25.705C43.4216 24.2918 43.463 24.3435 42.3288 24.1712C41.8032 24.1023 41.8032 24.1195 41.4436 25.0846Z" fill="#9747FF"/>
<path d="M42.0842 23.9832C42.1715 24.0652 42.3023 24.1471 42.3568 24.1471C42.4223 24.1471 42.3895 24.0652 42.3023 23.9832C42.2151 23.9013 42.0951 23.8194 42.0297 23.8194C41.9752 23.8194 41.997 23.9013 42.0842 23.9832Z" fill="#9747FF"/>
<path d="M45.2505 25.0243L44.7603 25.1219L45.3922 25.1382C45.7299 25.1544 46.0132 25.1382 46.0132 25.1056C46.0132 24.9592 45.7081 24.9267 45.2505 25.0243Z" fill="#9747FF"/>
<path d="M36.2771 25.6132C35.383 28.0051 34.7724 29.7909 34.816 29.8564C34.8596 29.9219 36.5388 29.627 36.5824 29.5615C36.735 29.283 38.2725 24.45 38.2289 24.3845C38.1962 24.3353 37.9672 24.3025 37.7164 24.3189C37.4765 24.3353 37.1821 24.2698 37.0731 24.1879C36.8877 24.0404 36.8005 24.2206 36.2771 25.6132Z" fill="#9747FF"/>
<path d="M52.5345 43.6673C52.0221 44.6667 51.575 45.9282 51.575 46.3869C51.575 46.5835 51.695 46.9112 51.8367 47.1078C52.1747 47.5829 53.2651 47.7139 55.4241 47.5337L56.9179 47.4191L57.245 46.7146C57.4304 46.3214 57.5721 45.9446 57.5721 45.8627C57.5721 45.7971 56.9942 45.7316 56.2855 45.7316C54.748 45.7316 54.41 45.5186 54.41 44.5848C54.41 44.2899 54.4536 43.8475 54.519 43.6182C54.5736 43.3888 54.5845 43.1922 54.5408 43.1758C54.4972 43.1595 54.2683 43.1267 54.0284 43.1103C53.7885 43.0775 53.4505 43.012 53.2651 42.9629C52.9816 42.8809 52.8944 42.9792 52.5345 43.6673Z" fill="#9747FF"/>
<path d="M18.7983 44.9781C17.4898 46.7311 16.3231 48.0417 14.6439 49.6473C14.4586 49.8275 14.3168 50.0077 14.3277 50.0405C14.4368 50.1879 19.2999 48.7462 19.8233 48.4022C19.9977 48.2875 20.5647 47.4192 21.0881 46.469C21.6115 45.5187 22.2548 44.3719 22.5165 43.9132L22.9963 43.0777L22.2112 43.0285C21.775 43.0121 21.1862 42.9794 20.8809 42.9466L20.3357 42.9138L18.7983 44.9781Z" fill="#9747FF"/>
<path d="M28.8625 42.9629C28.8298 43.0121 27.8702 43.0612 26.7253 43.0612C25.0134 43.0612 24.6318 43.1104 24.5119 43.307C24.3701 43.5691 24.2284 47.6157 24.3592 47.6157C24.4028 47.6157 24.8281 47.3044 25.3297 46.944C26.8126 45.8136 29.5385 42.881 29.1024 42.8646C29.0042 42.8646 28.9061 42.9138 28.8625 42.9629Z" fill="#9747FF"/>
<path d="M31.0323 43.3888C30.7488 43.9622 30.0182 45.8626 28.7316 49.3359C28.3063 50.499 27.7829 51.908 27.5867 52.4486C26.9215 54.2016 26.4963 55.3976 26.4963 55.4959C26.4963 55.6106 27.4885 55.2829 28.4044 54.8897C28.9169 54.6767 28.9605 54.6112 29.1459 53.8576C29.5602 52.0718 30.8469 50.3516 32.7987 48.959C33.2239 48.6478 33.5837 48.3693 33.5837 48.3529C33.5837 48.3201 33.3112 48.1727 32.984 48.0252C32.6569 47.8941 32.3843 47.7139 32.3843 47.6484C32.3843 47.5992 32.7223 46.5507 33.1367 45.322L33.8891 43.1103L32.6787 43.0611C32.0136 43.0284 31.4357 42.9792 31.3921 42.9301C31.3485 42.8973 31.1849 43.0939 31.0323 43.3888Z" fill="#9747FF"/>
<path d="M67.7563 44.2901C67.4183 45.1748 66.993 46.2397 66.8295 46.6492C66.655 47.0588 66.5132 47.452 66.5132 47.5175C66.5132 47.5831 66.9167 47.6158 67.4074 47.5831L68.3015 47.5339L68.8249 46.2233C69.3591 44.8962 70.0025 43.1105 70.0025 42.963C70.0025 42.9139 69.6972 42.8811 69.3155 42.8975C68.9339 42.9139 68.5632 42.8647 68.4977 42.7992C68.4214 42.7337 68.1488 43.2907 67.7563 44.2901Z" fill="#9747FF"/>
<path d="M65.1502 37.0322C64.5832 37.3926 63.4928 38.8835 63.024 39.9156C62.7841 40.4399 62.5878 40.915 62.5878 40.9641C62.5878 41.3409 63.7982 40.6856 64.5723 39.8992C65.2811 39.1784 65.7826 38.0643 65.7281 37.3599C65.6845 36.8192 65.5755 36.7537 65.1502 37.0322Z" fill="#9747FF"/>
<path d="M59.4913 43.2251C59.2405 43.4381 59.066 44.4539 59.1424 45.2403C59.2405 46.2232 59.5349 46.7147 60.2764 47.1407C60.8106 47.4683 61.1487 47.5175 62.8169 47.583L64.736 47.6486L64.856 47.1735C64.9105 46.9277 64.9977 46.6 65.0304 46.469C65.0958 46.256 64.9432 46.2232 63.9291 46.2724C62.9587 46.3215 62.6861 46.2724 62.3699 46.0266C61.8901 45.6498 61.5303 44.8471 61.4322 43.9132L61.3667 43.1924L60.8543 43.176C60.5817 43.176 60.2 43.1432 60.0038 43.1268C59.8184 43.1105 59.5785 43.1432 59.4913 43.2251Z" fill="#9747FF"/>
<path d="M49.8414 42.7335C49.8305 43.0448 49.6887 43.0775 48.4784 43.0448C48.1295 43.0284 47.7915 42.9792 47.726 42.9137C47.6606 42.8482 47.6497 43.1267 47.6933 43.7165C47.7587 44.4701 47.7369 44.6667 47.5407 45.0435C47.05 45.9773 45.2727 46.2395 44.5748 45.4858L44.2804 45.1582L44.0406 45.9446C43.9206 46.3705 43.7352 46.9603 43.648 47.2716L43.4954 47.8122L44.891 47.7303C46.4285 47.6484 47.2354 47.3863 48.2821 46.6163C49.6342 45.6333 50.2448 44.2899 49.9613 42.9792C49.9068 42.6843 49.8523 42.586 49.8414 42.7335Z" fill="#9747FF"/>
<path d="M41.3255 38.3265C40.3005 38.8835 39.003 40.8004 38.3269 42.7172C37.8472 44.0934 37.869 44.4538 38.4033 44.1261C38.5995 43.9951 39.3301 43.3725 40.017 42.7499L41.271 41.6031L41.6853 40.3253C42.3504 38.3101 42.2523 37.8186 41.3255 38.3265Z" fill="#9747FF"/>
<path d="M40.6713 43.0775C40.5186 43.1922 39.9953 43.651 39.5046 44.0769C38.0544 45.3548 37.4438 45.2729 37.5201 43.8148L37.5637 43.1103H36.7132H35.8736L35.5901 44.0114C35.2412 45.1418 35.1104 47.0422 35.3611 47.5337C35.8082 48.4184 38.0544 47.4518 39.9844 45.535C40.3006 45.2073 40.595 44.978 40.6277 45.0271C40.6495 45.0763 40.5513 45.6169 40.3987 46.2231C40.246 46.8293 40.1261 47.3535 40.1261 47.3863C40.1261 47.4191 40.4859 47.4518 40.9221 47.4518C41.6962 47.4518 41.729 47.4354 41.8598 46.9931C41.9797 46.6163 42.5686 44.4865 42.852 43.438C42.9284 43.1431 42.8848 43.1103 42.3178 43.0775C41.9797 43.0612 41.5327 43.012 41.3255 42.9465C41.0856 42.8973 40.8348 42.9301 40.6713 43.0775Z" fill="#9747FF"/>
<path d="M39.0575 52.416C38.5887 53.1368 38.5996 53.3826 39.1229 53.317C39.5155 53.2679 39.5264 53.2515 39.5591 52.5634C39.5809 52.1866 39.5482 51.8753 39.5046 51.8753C39.4501 51.8753 39.2538 52.1211 39.0575 52.416Z" fill="#9747FF"/>
<path d="M54.3664 52.1375C54.2682 52.5307 54.2682 52.5307 54.7262 52.5307C55.0097 52.5307 55.1732 52.4488 55.2169 52.2686C55.315 51.8754 55.315 51.8754 54.857 51.8754C54.5735 51.8754 54.41 51.9573 54.3664 52.1375Z" fill="#9747FF"/>
<path d="M54.0828 53.8248C53.9302 53.8904 53.7993 54.0706 53.7775 54.218C53.723 54.644 54.5735 54.6112 54.7262 54.1853C54.9115 53.6938 54.6935 53.5627 54.0828 53.8248Z" fill="#9747FF"/>
<path d="M71.5398 52.2358C71.4526 52.5798 71.4853 52.6126 71.8233 52.6617C72.2159 52.7109 72.5103 52.4815 72.5103 52.1047C72.5103 51.9409 72.3685 51.8753 72.0741 51.8753C71.7143 51.8753 71.6162 51.9409 71.5398 52.2358Z" fill="#9747FF"/>
</g>
</g>
<defs>
<filter id="filter0_d_176011_36" x="-59.4355" y="-50.4551" width="208.871" height="172.538" filterUnits="userSpaceOnUse" color-interpolation-filters="sRGB">
<feFlood flood-opacity="0" result="BackgroundImageFix"/>
<feColorMatrix in="SourceAlpha" type="matrix" values="0 0 0 0 0 0 0 0 0 0 0 0 0 0 0 0 0 0 127 0" result="hardAlpha"/>
<feOffset/>
<feGaussianBlur stdDeviation="29.7177"/>
<feComposite in2="hardAlpha" operator="out"/>
<feColorMatrix type="matrix" values="0 0 0 0 0.847059 0 0 0 0 0.760784 0 0 0 0 0.898039 0 0 0 0.5 0"/>
<feBlend mode="normal" in2="BackgroundImageFix" result="effect1_dropShadow_176011_36"/>
<feBlend mode="normal" in="SourceGraphic" in2="effect1_dropShadow_176011_36" result="shape"/>
</filter>
<filter id="filter1_d_176011_36" x="-35.6613" y="-26.6809" width="161.323" height="124.989" filterUnits="userSpaceOnUse" color-interpolation-filters="sRGB">
<feFlood flood-opacity="0" result="BackgroundImageFix"/>
<feColorMatrix in="SourceAlpha" type="matrix" values="0 0 0 0 0 0 0 0 0 0 0 0 0 0 0 0 0 0 127 0" result="hardAlpha"/>
<feOffset/>
<feGaussianBlur stdDeviation="17.8306"/>
<feComposite in2="hardAlpha" operator="out"/>
<feColorMatrix type="matrix" values="0 0 0 0 0.490196 0 0 0 0 0.309804 0 0 0 0 0.639216 0 0 0 0.15 0"/>
<feBlend mode="normal" in2="BackgroundImageFix" result="effect1_dropShadow_176011_36"/>
<feBlend mode="normal" in="SourceGraphic" in2="effect1_dropShadow_176011_36" result="shape"/>
</filter>
<clipPath id="clip0_176011_36">
<rect y="0.813751" width="90" height="70" rx="12" fill="white"/>
</clipPath>
</defs>
</svg>
