<svg width="80" height="40" viewBox="0 0 80 40" fill="none" xmlns="http://www.w3.org/2000/svg">
<g clip-path="url(#clip0_176048_615)">
<rect width="80" height="40" rx="12" fill="#130A1E"/>
<g filter="url(#filter0_d_176048_615)">
<g filter="url(#filter1_d_176048_615)">
<path d="M12.7453 4.79078C11.5241 4.85631 10.332 4.91248 10.109 4.92184L9.70196 4.93121L12.852 7.94569C14.5772 9.60272 15.9922 11.0257 15.9922 11.11C15.9922 11.2317 13.5692 15.4351 13.3947 15.6223C13.3559 15.6598 12.9683 15.7159 12.5224 15.7534L11.7276 15.8189V16.7738V17.7287L10.4483 18.59C9.74073 19.0674 8.28689 20.0411 7.22074 20.7619C4.82675 22.3815 1.86092 24.3007 0.794766 24.9185L0 25.3866L0.794766 25.4521C2.11292 25.5458 7.5212 25.5364 8.72304 25.4241C9.33366 25.3773 10.2157 25.2743 10.6906 25.2087C11.1558 25.1432 11.5338 25.1151 11.5338 25.1432C11.5338 25.2462 9.41119 26.5849 3.90598 29.9739C1.97722 31.1534 0.416768 32.1364 0.436152 32.1552C0.51369 32.23 6.66828 31.8462 8.18997 31.6683C10.109 31.4343 12.5515 31.0692 13.9375 30.8071C15.5852 30.4888 18.0082 29.8709 18.6673 29.5994C18.8515 29.5245 18.9968 29.4871 18.9968 29.4964C18.9968 29.5151 18.8902 29.8054 18.7545 30.1424L18.5219 30.7603L19.1228 30.4981C19.4524 30.3577 19.9273 30.1424 20.1793 30.03C20.4313 29.9271 20.6542 29.8334 20.693 29.8334C20.7899 29.8334 19.3845 32.4173 18.1536 34.505C17.6884 35.2913 17.6593 35.3756 17.8532 35.3194C17.9792 35.2913 18.5607 35.179 19.1422 35.0667C19.7335 34.9637 21.4975 34.6079 23.0676 34.2803C26.6925 33.5313 26.6731 33.5313 27.7684 33.6718C28.5147 33.7747 28.8733 33.7747 29.794 33.6718C30.6663 33.5781 31.3739 33.5688 32.9731 33.6437C34.1071 33.6905 35.0569 33.7186 35.0763 33.6998C35.0957 33.6905 35.0376 33.5875 34.9406 33.4845L34.7662 33.2973H52.8229H70.8893L70.55 32.9415C70.1623 32.5483 68.786 30.9662 68.6891 30.7977C68.6116 30.676 69.1931 29.9177 70.9862 27.8207C71.5968 27.0998 72.0911 26.51 72.0814 26.5007C72.0717 26.4913 71.2382 26.4632 70.2302 26.4351C69.2222 26.3977 68.3887 26.3602 68.3693 26.3415C68.3499 26.3228 68.9314 26.1356 69.668 25.9109C70.395 25.6956 71.0443 25.499 71.1122 25.4802C71.1897 25.4521 71.1219 25.2649 70.9087 24.9279C70.7342 24.647 70.4725 24.1977 70.3174 23.9168C69.9879 23.3083 69.9976 23.2147 70.6373 21.6045L71.0928 20.4436L71.8197 20.0504C73.4286 19.1798 78.3523 16.3806 79.3797 15.7534L80 15.3696L76.4236 15.304C74.4463 15.2666 72.1008 15.2572 71.1994 15.2853C70.046 15.3321 69.5808 15.3134 69.6002 15.2478C69.6196 15.1917 70.0848 14.8078 70.6373 14.3866L71.6453 13.6376H69.5614H67.4776L67.9428 12.561C68.1948 11.9806 68.5244 11.1755 68.6697 10.7917C68.8151 10.4078 69.009 10.0334 69.0962 9.95846C69.1834 9.89293 69.5323 9.71506 69.8813 9.57463C70.8699 9.16271 76.3072 6.55079 76.5205 6.38228L76.7143 6.23249L76.5205 6.2793C76.4139 6.29802 75.2992 6.37292 74.0489 6.42908C72.7986 6.48526 70.899 6.56951 69.8425 6.61632L67.9137 6.70994L67.2256 6.0827C66.8476 5.72696 66.5277 5.41802 66.5084 5.37121C66.4502 5.24951 66.3339 5.29631 65.607 5.68951C64.8219 6.12015 64.6668 6.12015 63.8527 5.72696C63.591 5.59589 63.339 5.49291 63.3002 5.49291C63.2614 5.49291 63.1354 5.68015 63.0191 5.91419L62.8059 6.33547H61.3618H59.9079L60.063 5.97972C60.1405 5.79249 60.2762 5.51163 60.3538 5.36185L60.4992 5.09972L59.5881 5.16525C57.4364 5.31504 52.9683 5.78312 51.9118 5.961C49.954 6.28866 48.723 6.5976 47.6084 7.00951L47.0947 7.20611L46.833 6.96271C46.2224 6.41972 45.1563 6.11079 44.0223 6.16696C43.6443 6.17632 43.3244 6.15759 43.3244 6.12015C43.3244 5.99845 43.8188 5.08099 43.9835 4.90312C44.0611 4.81886 44.1095 4.74397 44.0901 4.74397C43.8963 4.74397 39.5057 6.31674 38.7691 6.65377C38.3814 6.83164 38.0809 6.89717 37.6448 6.89717C36.8306 6.89717 35.0763 7.07505 34.2719 7.22483C33.9036 7.29973 33.3026 7.50569 32.944 7.6742L32.285 7.9925L32.0136 7.72101C31.0734 6.75675 28.7957 5.7644 26.489 5.30568C23.5328 4.71589 18.1149 4.50993 12.7453 4.79078ZM19.5105 5.18397C18.6964 5.2027 17.3589 5.2027 16.5544 5.18397C15.7402 5.17461 16.3993 5.15589 18.0276 5.15589C19.6559 5.15589 20.315 5.17461 19.5105 5.18397ZM13.5692 5.30568C12.9586 5.34312 12.1735 5.38057 11.8343 5.38993C11.3012 5.39929 11.2333 5.41802 11.2818 5.55844C11.34 5.71759 11.3303 5.71759 11.2043 5.55844C11.1364 5.47419 11.0201 5.38993 10.9426 5.38057C10.5937 5.34312 12.2995 5.24951 13.4238 5.24014H14.6838L13.5692 5.30568ZM22.1759 5.27759C21.9724 5.29631 21.6235 5.29631 21.4005 5.27759C21.1679 5.25887 21.3327 5.24014 21.7591 5.24014C22.1856 5.24014 22.3698 5.25887 22.1759 5.27759ZM24.3761 5.40866C25.2871 5.51163 25.6264 5.57717 25.5585 5.6427C25.5391 5.66142 25.0642 5.61461 24.5118 5.53972C23.9593 5.46483 23.3196 5.39929 23.0967 5.39929C22.8641 5.39929 22.6799 5.37121 22.6799 5.3244C22.6799 5.24014 23.1258 5.26823 24.3761 5.40866ZM42.8011 5.91419C42.5878 6.401 42.4812 6.56015 42.4328 6.46653C42.3649 6.35419 42.7235 5.58653 42.8495 5.58653C42.898 5.58653 42.8786 5.73632 42.8011 5.91419ZM59.5881 5.97972C59.4718 6.33547 59.2585 6.58824 59.3458 6.28866C59.3652 6.18568 59.4233 6.01717 59.4621 5.92355C59.5493 5.72696 59.6947 5.72696 57.1844 5.92355C56.787 5.961 56.4866 5.95164 56.5156 5.92355C56.5835 5.85802 58.1633 5.71759 59.1422 5.68951L59.6947 5.68015L59.5881 5.97972ZM16.7676 10.9695C16.7676 11.0163 15.7015 10.024 14.3833 8.76952C11.34 5.82993 11.4369 5.93291 11.4369 5.82057C11.4369 5.77376 12.6387 6.88781 14.1023 8.30143C15.5658 9.71506 16.7676 10.9134 16.7676 10.9695ZM26.5277 5.82993C26.4987 5.85802 26.4114 5.86738 26.3436 5.8393C26.2661 5.81121 26.2951 5.78312 26.4017 5.78312C26.5084 5.77376 26.5665 5.80185 26.5277 5.82993ZM42.4425 5.81121C42.4231 5.82057 42.2583 5.8861 42.0935 5.94227C41.7349 6.05462 41.6574 5.99845 41.9966 5.86738C42.2098 5.78312 42.52 5.74568 42.4425 5.81121ZM27.0124 5.92355C26.9833 5.95164 26.896 5.961 26.8282 5.93291C26.7507 5.90483 26.7797 5.87674 26.8864 5.87674C26.993 5.86738 27.0511 5.89547 27.0124 5.92355ZM66.4211 5.98908C66.489 6.05462 66.6247 6.21377 66.7313 6.33547C66.9154 6.55079 66.9057 6.54143 66.6053 6.30738C66.2757 6.04525 65.9656 5.97972 65.859 6.14823C65.8299 6.19504 65.7233 6.24185 65.6361 6.24185C65.5488 6.24185 65.6167 6.16696 65.8105 6.06398C66.2176 5.8393 66.2757 5.82993 66.4211 5.98908ZM27.8653 6.10143L28.156 6.24185L27.8168 6.18568C27.6327 6.14823 27.3904 6.09206 27.2837 6.04525C27.1093 5.97972 27.1093 5.97036 27.3322 5.97036C27.4679 5.97036 27.7102 6.02653 27.8653 6.10143ZM56.1182 6.00781C56.0407 6.02653 55.4495 6.09206 54.8098 6.14823C54.1701 6.2044 53.1524 6.31674 52.5418 6.39164C51.9312 6.46653 51.4175 6.50398 51.3981 6.48526C51.3303 6.41972 52.5612 6.24185 53.8406 6.13887C54.5384 6.0827 55.1199 6.01717 55.1393 5.99845C55.1587 5.97972 55.4204 5.97036 55.7209 5.97036C56.0213 5.97972 56.1958 5.99845 56.1182 6.00781ZM63.6491 6.2044C63.6201 6.23249 63.5328 6.24185 63.465 6.21377C63.3874 6.18568 63.4165 6.15759 63.5231 6.15759C63.6298 6.14823 63.6879 6.17632 63.6491 6.2044ZM28.7279 6.39164C28.9799 6.47589 29.164 6.56015 29.1447 6.57887C29.0962 6.62568 28.3596 6.41972 28.2627 6.32611C28.127 6.21377 28.1948 6.22313 28.7279 6.39164ZM64.6377 6.53206C64.5117 6.5976 63.9884 6.48526 63.8527 6.35419C63.8042 6.30738 63.9884 6.31674 64.2598 6.37292C64.5214 6.41972 64.6959 6.49462 64.6377 6.53206ZM63.1258 6.75675C63.0967 6.841 63.0482 6.88781 63.0288 6.85973C62.9998 6.83164 63.0094 6.77547 63.0482 6.7193C63.1354 6.56951 63.1936 6.5976 63.1258 6.75675ZM42.2292 6.85036C42.2292 6.92526 42.1905 6.99079 42.142 6.99079C42.0451 6.99079 42.0354 6.85973 42.1323 6.77547C42.2195 6.68185 42.2292 6.69121 42.2292 6.85036ZM43.1306 6.80355C42.9949 6.841 42.8011 6.87845 42.6945 6.87845L42.5006 6.88781L42.6945 6.80355C42.8011 6.75675 42.9949 6.72866 43.1306 6.72866H43.3729L43.1306 6.80355ZM61.4781 6.86909C61.1485 6.88781 60.5767 6.88781 60.2181 6.86909C59.8595 6.85036 60.1308 6.841 60.819 6.841C61.5168 6.841 61.8076 6.85036 61.4781 6.86909ZM74.204 7.04696C74.0005 7.1593 73.9036 7.16866 73.8551 7.08441C73.8066 7.01888 73.5353 6.99079 73.0022 7.02824C72.5273 7.04696 72.2268 7.0376 72.2656 6.98143C72.2946 6.93462 72.8083 6.89717 73.3996 6.89717C74.4366 6.90653 74.4754 6.90653 74.204 7.04696ZM46.6392 7.50569C46.7167 7.63675 46.6586 7.61803 46.4357 7.42143C46.2709 7.26228 46.1352 7.10313 46.1352 7.05632C46.1352 6.92526 46.5132 7.27164 46.6392 7.50569ZM49.2077 7.04696C49.1786 7.07505 49.0914 7.08441 49.0235 7.05632C48.946 7.02824 48.975 7.00015 49.0817 7.00015C49.1883 6.99079 49.2464 7.01888 49.2077 7.04696ZM71.3157 7.05632C71.1703 7.07505 70.9087 7.07505 70.7342 7.05632C70.5597 7.0376 70.676 7.01888 70.9959 7.01888C71.3157 7.01888 71.4611 7.0376 71.3157 7.05632ZM22.583 7.17802C25.2387 7.44952 27.5164 8.08611 29.1931 9.05037C29.9491 9.49038 31.054 10.4453 31.277 10.8572C31.4999 11.2878 31.4514 11.9525 31.151 12.5329C30.6179 13.544 28.6213 15.2666 26.2467 16.7551C22.7187 18.9738 19.685 20.3687 15.8953 21.5389C12.7841 22.4938 11.2818 22.7747 8.86843 22.8683L7.60843 22.9245L8.81027 22.2972C10.0509 21.6513 11.5532 20.79 13.0167 19.8819L13.8599 19.3483V18.6555C13.8599 18.2811 13.889 17.8317 13.9278 17.6632L13.9859 17.3542L14.6838 17.4104C15.1878 17.4572 15.4204 17.4385 15.4882 17.3542C15.5367 17.2981 16.1182 16.3151 16.7676 15.1823C17.4267 14.0495 18.2118 12.6921 18.5219 12.1678C18.8418 11.6436 19.0938 11.2036 19.0938 11.1755C19.0938 11.1568 18.8321 10.8853 18.5025 10.5763L17.921 10.0146L18.1924 9.95846C18.3475 9.93038 18.8515 9.87421 19.3167 9.83676C19.7819 9.79931 20.1599 9.74314 20.1599 9.71506C20.1599 9.67761 19.9952 9.59336 19.8013 9.52782C19.0259 9.25633 17.4461 8.53548 16.2152 7.89888C15.149 7.34654 14.9649 7.21547 15.149 7.1593C15.4979 7.06568 21.575 7.07505 22.583 7.17802ZM69.7359 7.18739C69.3191 7.27164 67.6714 7.281 67.623 7.19675C67.5939 7.1593 68.127 7.13122 68.7957 7.13122C69.4742 7.13122 69.9007 7.1593 69.7359 7.18739ZM37.102 7.43079C37.0051 7.44952 36.85 7.44952 36.7628 7.43079C36.6659 7.40271 36.7434 7.38398 36.9276 7.38398C37.1117 7.38398 37.1892 7.40271 37.102 7.43079ZM31.306 7.75845C31.306 7.80526 31.1994 7.76781 31.0637 7.68356C30.928 7.5993 30.8214 7.51505 30.8214 7.49632C30.8214 7.4776 30.928 7.51505 31.0637 7.57122C31.1994 7.62739 31.306 7.71165 31.306 7.75845ZM36.3363 7.49632C36.3169 7.51505 35.9486 7.55249 35.5222 7.58058C35.0666 7.60867 34.8631 7.5993 35.0376 7.55249C35.3283 7.4776 36.4139 7.43079 36.3363 7.49632ZM73.0797 7.50569C73.0797 7.56186 72.3431 7.92696 72.2365 7.92696C72.1396 7.92696 72.9053 7.46824 73.0119 7.45888C73.0506 7.45888 73.0797 7.4776 73.0797 7.50569ZM65.5973 8.36697C66.2854 9.27505 66.2951 9.30314 66.1207 9.64952C65.8202 10.2206 63.9981 14.9951 64.0465 15.0793C64.0756 15.1261 64.4536 15.1355 64.8994 15.0981C65.3744 15.07 65.7136 15.0793 65.7136 15.1261C65.7136 15.3696 64.4342 16.3057 63.5328 16.727C62.3698 17.27 60.2859 17.8691 60.2859 17.6725C60.2859 17.6164 61.8851 12.9636 62.079 12.4393C62.1856 12.1678 61.6041 12.7108 60.2568 14.1525C59.4912 14.9764 58.3862 16.0717 57.8047 16.5866C57.2232 17.1015 56.7192 17.5602 56.6804 17.6164C56.5156 17.8317 56.6319 17.3917 57.2425 15.5849C57.9695 13.4317 58.3669 12.0461 58.2699 12.0461C58.2312 12.0461 57.7369 12.4955 57.1747 13.0478C56.3315 13.881 55.7499 14.5925 54.7516 15.9968C54.6935 16.081 51.6404 16.4649 51.5726 16.3993C51.5532 16.3806 51.6986 16.184 51.8827 15.9593C52.4158 15.3227 54.4609 11.9338 54.7516 11.1849C54.8389 10.9602 54.8195 10.9414 54.5481 10.8853C54.3833 10.8572 53.8406 10.8291 53.3366 10.8291C52.6484 10.8291 52.4255 10.801 52.4546 10.7074C52.5224 10.5202 53.4819 9.93038 54.8098 9.27505C55.5076 8.92867 56.3024 8.50739 56.5932 8.32952C56.8742 8.15165 57.1166 8.02058 57.1262 8.0393C57.2619 8.21718 57.5818 9.32186 57.6302 9.77123C57.669 10.0989 57.7175 10.361 57.7465 10.361C57.7756 10.361 57.9985 10.2019 58.2409 10.0053C58.4832 9.80867 58.8805 9.51846 59.1228 9.35931C59.5978 9.05037 61.2939 8.20782 61.4393 8.20782C61.4878 8.20782 61.6913 8.46058 61.8851 8.76016C62.1565 9.20016 62.2147 9.35931 62.1371 9.49038C61.8367 10.0146 61.7107 10.3142 61.8464 10.2112C62.1759 9.96782 63.6879 8.76952 64.2985 8.28271C64.6668 7.98314 64.9964 7.73973 65.0448 7.73973C65.0836 7.73973 65.3259 8.02058 65.5973 8.36697ZM33.826 7.87079C33.826 7.88952 33.6806 7.95505 33.5159 8.01122C33.2251 8.10484 33.2154 8.09548 33.3802 7.97377C33.5546 7.84271 33.826 7.78654 33.826 7.87079ZM71.5774 8.25463C71.2576 8.4325 70.928 8.57292 70.8505 8.57292C70.6954 8.57292 71.8973 7.93633 72.062 7.93633C72.1202 7.92696 71.8973 8.07675 71.5774 8.25463ZM32.7986 8.37633C32.2462 8.76016 32.1783 8.79761 32.2268 8.65718C32.2753 8.53548 32.915 8.14228 33.0894 8.12356C33.1379 8.1142 33.0022 8.2359 32.7986 8.37633ZM53.5983 8.4325C53.5983 8.49803 52.9392 9.60272 52.474 10.3236C52.2316 10.6887 51.7276 11.7466 51.3303 12.664C50.9426 13.5908 50.4773 14.6487 50.3126 15.0232C50.1381 15.407 50.0121 15.7347 50.0412 15.7534C50.0606 15.7815 50.4386 15.6691 50.8844 15.51C51.3303 15.3508 51.7083 15.2478 51.7373 15.2759C51.8343 15.3696 51.3206 16.4461 51.1461 16.5023C50.8844 16.5866 50.8553 16.5023 51.0201 16.1747C51.2527 15.7534 51.2043 15.7066 50.9038 16.0436C50.6906 16.287 50.4967 16.3806 49.8667 16.521C49.4403 16.624 48.6455 16.8206 48.093 16.961C47.5406 17.1015 47.0657 17.1951 47.0463 17.167C47.0269 17.1483 47.1432 16.8487 47.308 16.5023C47.4727 16.1559 47.589 15.8564 47.5697 15.8376C47.5503 15.8189 47.2886 15.9406 46.9978 16.1091C46.2709 16.5304 45.3211 16.8862 44.7201 16.961C42.2486 17.2793 42.7429 14.1525 45.5731 11.4657C47.0269 10.0895 48.5389 9.28442 50.3998 8.89122C51.8149 8.59165 53.5983 8.33888 53.5983 8.4325ZM44.4391 8.71335C45.4277 9.11591 45.3986 10.567 44.3906 11.9993C43.2857 13.5721 41.2406 14.6112 39.8158 14.321C39.5348 14.2649 39.2828 14.2368 39.2634 14.2555C39.1665 14.3398 39.5251 14.9951 39.7577 15.1636C40.1163 15.4257 40.9692 15.4725 41.8028 15.2853C42.1711 15.201 42.4812 15.1355 42.5103 15.1355C42.6266 15.1355 42.5103 15.5006 42.1614 16.1559L41.7834 16.8955L41.1243 16.9704C40.1163 17.0734 38.4105 16.961 37.8677 16.7551C37.0923 16.4555 36.5399 15.8096 36.5399 15.201C36.5399 14.4708 37.2862 12.7389 38.0422 11.7185C38.9048 10.5483 40.6203 9.32186 42.1226 8.81633C42.898 8.5542 43.9157 8.50739 44.4391 8.71335ZM38.8272 9.72442C38.5365 10.258 37.9259 11.344 37.4606 12.1397L36.6271 13.5908L36.6852 12.6546C36.7143 12.1397 36.7725 11.578 36.8016 11.4002C36.85 11.1193 36.8403 11.1006 36.6756 11.1849C36.5689 11.241 36.094 11.681 35.6191 12.1585C34.7856 13.001 34.6983 13.1227 33.7776 14.9108C33.2445 15.9313 32.7986 16.7925 32.7793 16.8206C32.7211 16.9049 30.3271 17.064 30.2787 16.9891C30.2496 16.9517 30.5888 16.2776 31.025 15.4913C32.5563 12.7483 33.0506 11.8214 33.0119 11.7934C32.9828 11.7559 32.5176 11.8589 31.9651 12.0087C31.403 12.1678 32.2559 11.1942 33.2348 10.5576C33.8842 10.1363 35.8129 9.20952 35.9486 9.25633C35.9971 9.26569 35.9583 9.51846 35.8614 9.81804L35.6869 10.361L35.9971 10.1176C37.1311 9.22825 37.2862 9.14399 38.1003 8.96612C39.4766 8.66654 39.4378 8.61973 38.8272 9.72442ZM70.172 8.94739C69.9879 9.04101 69.7262 9.15335 69.5905 9.1908C69.2028 9.30314 69.4839 9.07846 69.9297 8.91931C70.4628 8.73207 70.5791 8.74144 70.172 8.94739ZM68.2239 10.6325C68.1657 10.801 68.0979 10.9134 68.0785 10.8946C68.0591 10.8759 68.0882 10.7261 68.1464 10.5576C68.2045 10.3891 68.2724 10.2768 68.2917 10.2955C68.3111 10.3142 68.282 10.464 68.2239 10.6325ZM67.7587 11.8495C67.4388 12.6734 67.1771 13.207 67.119 13.1508C67.0899 13.1321 67.2837 12.6453 67.5357 12.0649C67.778 11.4938 68.001 11.0351 68.0107 11.0538C68.03 11.0725 67.9137 11.4283 67.7587 11.8495ZM16.2055 11.9338C16.0601 12.2053 15.905 12.4206 15.8662 12.4206C15.8178 12.4206 15.8953 12.224 16.0407 11.9712C16.1958 11.7278 16.3315 11.4938 16.3509 11.4563C16.3799 11.4095 16.4187 11.3908 16.4381 11.4189C16.4575 11.4376 16.3509 11.6717 16.2055 11.9338ZM15.4979 13.1415C15.3913 13.4223 14.7419 14.4802 14.6838 14.4802C14.6063 14.4802 14.771 14.1432 15.149 13.5159C15.5561 12.8419 15.6627 12.7295 15.4979 13.1415ZM66.8864 13.8529C66.8185 14.0215 66.8185 14.1057 66.9057 14.1432C66.9736 14.1619 66.9251 14.19 66.8088 14.19C66.5471 14.1993 66.5374 14.1806 66.741 13.8155C66.9154 13.4785 67.022 13.5066 66.8864 13.8529ZM69.8716 14.321C68.9411 15.0793 68.7085 15.2385 68.6213 15.2104C68.5631 15.1917 68.8054 14.967 69.1737 14.7142L69.8328 14.2461L68.7667 14.19L67.7005 14.1432L68.912 14.1244L70.1236 14.1151L69.8716 14.321ZM68.1657 15.5568C68.0688 15.6785 67.9234 15.7815 67.8459 15.7908C67.7587 15.7908 67.8168 15.6972 67.9913 15.5568C68.3596 15.2666 68.379 15.2666 68.1657 15.5568ZM76.1812 15.7815C76.1037 15.8189 74.4657 15.8189 72.5466 15.7908L69.0574 15.7347L72.692 15.7159C74.6886 15.7159 76.2588 15.744 76.1812 15.7815ZM77.984 16.0249C77.7805 16.1747 77.6739 16.1466 77.7805 15.9874C77.8095 15.9313 77.9162 15.8844 78.0034 15.8844C78.1488 15.8938 78.1488 15.9032 77.984 16.0249ZM12.7453 16.2589C12.7163 16.3057 12.629 16.3525 12.5709 16.3525C12.503 16.3525 12.5127 16.3151 12.6 16.2589C12.7841 16.1466 12.8229 16.1466 12.7453 16.2589ZM13.4529 16.2308C13.3559 16.2496 13.1815 16.2496 13.0652 16.2308C12.9392 16.2121 13.0167 16.1934 13.2299 16.1934C13.4432 16.184 13.5401 16.2027 13.4529 16.2308ZM77.4509 16.3525C77.2377 16.5304 77.0536 16.5959 77.0536 16.493C77.0536 16.4461 77.5479 16.1747 77.6351 16.1747C77.6642 16.1747 77.5769 16.2589 77.4509 16.3525ZM12.4061 16.933C12.4061 17.7755 12.348 17.9628 12.0863 18.1219C11.873 18.253 11.873 18.253 12.0572 18.047C12.222 17.8691 12.251 17.7193 12.222 17.0547C12.2123 16.5398 12.2316 16.2589 12.2995 16.2589C12.3673 16.2589 12.4061 16.521 12.4061 16.933ZM76.472 16.8581C76.472 16.9236 75.2896 17.5789 75.2411 17.5415C75.2217 17.5134 75.4737 17.3449 75.8129 17.167C76.4623 16.8019 76.472 16.8019 76.472 16.8581ZM54.1216 17.0266C54.0732 17.0921 53.8018 17.504 53.5013 17.944C53.1912 18.384 52.9004 18.8334 52.8326 18.9551L52.7163 19.1704L53.2784 19.1142C54.3833 19.0113 56.1667 18.8802 56.4575 18.8896C56.6707 18.8896 56.1667 19.1704 54.519 19.9568C53.2978 20.5466 52.0281 21.1083 51.7083 21.2206C51.3884 21.3236 51.0783 21.4453 51.0201 21.4828C50.8166 21.6045 48.7521 24.6938 48.7521 24.8624C48.7521 25.2743 49.3433 25.3773 50.7875 25.2462C51.3884 25.1807 51.8924 25.1526 51.9118 25.1807C51.9312 25.1994 51.7567 25.5458 51.5144 25.9577C51.2721 26.3602 51.0492 26.7628 51.0298 26.847C51.0007 26.9313 50.836 27.0249 50.6712 27.0624C50.1769 27.156 46.5035 27.1279 46.1158 27.0249C45.6506 26.8939 45.4567 26.6224 45.4567 26.0887C45.4567 25.5364 45.7378 25.0121 46.8718 23.4862C47.3855 22.8028 47.7829 22.2223 47.7635 22.1943C47.715 22.1568 46.1837 22.3253 45.922 22.4002C45.5246 22.5126 45.8444 22.2785 47.5212 21.2206L49.2852 20.1066L49.7213 19.3108L50.1575 18.5057L49.7892 18.2155C49.5857 18.0564 49.45 17.8879 49.4984 17.841C49.5372 17.8036 50.361 17.6164 51.3206 17.4385C52.2801 17.2606 53.259 17.064 53.5013 17.0172C54.1313 16.8955 54.1992 16.8955 54.1216 17.0266ZM36.1134 17.2232C36.0068 17.2887 35.3089 17.7755 34.5626 18.3185C33.4093 19.1517 33.1573 19.3857 32.9537 19.7696C32.7405 20.2002 30.4434 24.4972 29.6971 25.8921C29.5227 26.2198 29.3967 26.5287 29.4257 26.5662C29.4548 26.613 29.6874 26.6504 29.9588 26.6504C30.4143 26.6504 30.4337 26.6598 30.4337 26.9032C30.4337 27.2777 30.3659 27.3339 29.5711 27.727C28.5147 28.2326 27.3322 29.0002 26.9542 29.4122C26.7701 29.6181 26.4793 30.0768 26.3048 30.442L25.9947 31.116L24.4536 31.4998C22.8931 31.893 22.6799 31.9398 22.6799 31.8369C22.6799 31.79 22.9998 31.2471 23.7945 29.9271C23.969 29.6462 24.2888 29.0751 24.5214 28.6632C24.7541 28.2513 25.5197 26.9126 26.237 25.6862C26.9445 24.4598 27.526 23.4394 27.526 23.4113C27.526 23.3832 27.2353 23.5985 26.8767 23.9075C26.0141 24.6283 24.8219 25.4896 24.0368 25.967C23.3487 26.379 21.3908 27.3994 21.2939 27.3994C21.2551 27.3994 21.2261 26.6224 21.2261 25.6675V23.9449L20.8093 24.3849C20.2956 24.9279 18.6479 26.7815 18.3087 27.1934C18.0179 27.5585 17.6205 27.6709 14.9164 28.1951C13.2396 28.5228 10.3513 28.9909 10.2932 28.9441C10.2738 28.9254 10.739 28.6819 11.3109 28.3824C12.6484 27.7083 14.8873 26.2666 15.7015 25.5738C16.6416 24.7594 18.7158 22.8121 19.9079 21.6138L20.9741 20.5372L20.6833 20.4249L20.4022 20.3032L20.7899 20.144C21.6913 19.7696 23.9011 18.6649 24.7831 18.15C25.8299 17.5415 26.2273 17.373 26.1497 17.5789C25.985 17.9908 24.6184 22.3628 24.6184 22.4751C24.6184 22.5594 26.0625 21.4172 28.4177 19.47C29.4451 18.6181 30.3756 17.8691 30.4822 17.8036C30.6373 17.7006 33.448 17.3636 35.716 17.167C35.9292 17.1483 36.1522 17.1296 36.2006 17.1202C36.2588 17.1202 36.2103 17.167 36.1134 17.2232ZM69.1059 17.3355C69.1059 17.4104 69.038 17.4759 68.9508 17.4759C68.8151 17.4759 68.8054 17.5415 68.8539 17.8972C68.912 18.2436 68.8927 18.3185 68.7764 18.3185C68.66 18.3185 68.6213 18.2155 68.6213 17.8972C68.6213 17.5883 68.5825 17.4759 68.4759 17.4759C68.3984 17.4759 68.3305 17.4104 68.3305 17.3355C68.3305 17.2325 68.4371 17.1951 68.7182 17.1951C68.9993 17.1951 69.1059 17.2325 69.1059 17.3355ZM70.1526 17.3542C70.172 17.4291 70.1042 17.4759 69.9782 17.4759C69.7843 17.4759 69.7747 17.5134 69.8037 17.8691C69.8134 18.0938 69.794 18.2904 69.7359 18.3185C69.6777 18.3466 69.6293 18.1781 69.6099 17.9159C69.5905 17.607 69.542 17.4759 69.4354 17.4759C69.3676 17.4759 69.2997 17.4104 69.2997 17.3262C69.2997 17.2138 69.387 17.1951 69.7068 17.2138C69.9297 17.2325 70.1236 17.2981 70.1526 17.3542ZM70.7342 17.4291C70.802 17.8598 70.8699 17.8972 70.9765 17.5696C71.0443 17.3917 71.1703 17.2325 71.2673 17.2138C71.4127 17.1857 71.432 17.2606 71.432 17.7474C71.432 18.3372 71.2963 18.5713 71.1607 18.2155C71.0928 18.0376 71.0637 18.0283 71.0153 18.1593C70.928 18.3934 70.6567 18.3559 70.647 18.1032L70.6276 17.8972L70.5888 18.1032C70.5694 18.2249 70.4822 18.3185 70.4046 18.3185C70.298 18.3185 70.269 18.1781 70.269 17.7474C70.269 17.2138 70.2786 17.1857 70.4822 17.2138C70.6179 17.2325 70.7148 17.3168 70.7342 17.4291ZM74.7468 17.8317C74.4851 18.0283 73.2833 18.6649 73.3899 18.5619C73.4577 18.4776 74.8534 17.6725 74.9212 17.6725C74.9503 17.6725 74.8728 17.7381 74.7468 17.8317ZM11.5338 18.4496C11.5338 18.5245 9.47904 19.9194 9.43058 19.8819C9.38212 19.8257 9.76012 19.5449 10.7584 18.8896C11.5047 18.4028 11.5338 18.384 11.5338 18.4496ZM68.8151 18.7304C68.8151 18.8053 68.6116 19.367 68.3693 19.9755C67.3128 22.6343 67.2256 22.9526 67.4097 23.7015L67.4776 23.9917L66.0819 24.2819C65.3259 24.4411 64.6862 24.5628 64.6668 24.5441C64.6087 24.4879 64.9285 22.8496 65.1224 22.2504C65.229 21.9228 65.2968 21.6326 65.2774 21.6138C65.2193 21.5577 64.0271 22.5032 63.5619 22.9713C63.3681 23.1679 62.9707 23.7296 62.6799 24.2164C62.3891 24.7032 61.8851 25.5551 61.5459 26.1075L60.9353 27.1185H59.685H58.425L58.8902 26.2947C59.6559 24.9373 61.2648 22.2223 61.4781 21.9321L61.6816 21.6606L61.323 21.7168C61.1195 21.7449 60.9644 21.7355 60.9644 21.6794C60.9644 21.6326 61.1388 21.2674 61.3521 20.8649L61.7301 20.144L62.9222 19.6947C64.1241 19.2453 65.4228 18.8521 65.4228 18.9364C65.4228 18.9645 65.2484 19.2734 65.0351 19.6291C64.8219 19.9849 64.6474 20.3125 64.6474 20.3687C64.6474 20.4249 64.9479 20.2283 65.3259 19.9287C65.985 19.3951 66.9251 18.8428 67.4485 18.693C67.5842 18.6462 67.9525 18.6087 68.2627 18.6087C68.6794 18.5993 68.8151 18.6274 68.8151 18.7304ZM59.9273 18.8896C60.1308 18.9364 60.4313 19.1049 60.6058 19.2547C60.9062 19.5074 60.9159 19.5542 60.9159 20.2096C60.9159 20.8274 60.8772 20.9866 60.5379 21.6419C59.5978 23.4768 57.4849 24.7219 55.6046 24.5534L54.9552 24.4972L55.1006 24.8343C55.1781 25.0215 55.2459 25.19 55.2459 25.2087C55.2459 25.2275 55.3816 25.3117 55.5367 25.3866C56.0213 25.63 56.9421 25.6581 57.7465 25.4521C58.5898 25.2462 58.5898 25.2462 58.1342 26.3602L57.8338 27.1185H56.1279C54.2089 27.1185 53.511 27.0062 52.8713 26.5756C52.2995 26.1917 52.125 25.8079 52.1735 25.0028C52.2316 24.0011 52.9198 22.7653 54.1119 21.5296C55.2556 20.3406 56.8161 19.3857 58.2602 18.9832C58.9968 18.7772 59.4233 18.7491 59.9273 18.8896ZM72.8471 18.927C72.7405 19.0019 72.6048 19.0674 72.5563 19.0674C72.4982 19.0674 72.5369 19.0019 72.6339 18.927C72.7405 18.8521 72.8762 18.7866 72.9246 18.7866C72.9828 18.7866 72.944 18.8521 72.8471 18.927ZM48.345 19.1236C48.471 19.1611 48.5389 19.2172 48.4904 19.2453C48.4517 19.2734 48.0543 19.704 47.6181 20.1908C46.6198 21.3143 46.3097 21.6045 45.67 21.9602C45.3889 22.1194 45.1369 22.2504 45.1175 22.2504C45.0981 22.2504 45.2338 21.9696 45.4083 21.6232C45.5827 21.2768 45.7087 20.9491 45.6797 20.9023C45.5924 20.7713 44.3034 20.9211 43.8381 21.127C43.1984 21.3985 43.2469 21.6045 44.1968 22.8121C44.8268 23.6079 45.0206 24.076 44.9237 24.5721C44.7395 25.5832 43.7509 26.3883 42.0063 26.95C41.4151 27.1373 41.1534 27.1653 39.7674 27.1653C38.9048 27.1653 38.1682 27.1373 38.1294 27.0998C38.0809 27.0436 39.1568 24.75 39.3118 24.6002C39.3312 24.5721 39.5057 24.7313 39.6898 24.9373C39.9612 25.2462 40.1066 25.3211 40.4652 25.3773C41.008 25.4428 41.6961 25.293 41.9191 25.059C42.0548 24.9092 42.0645 24.853 41.9385 24.5815C41.8609 24.4036 41.6186 24.0479 41.4054 23.7764C40.7269 22.9526 40.6106 22.7185 40.6106 22.1662C40.6106 20.5747 42.2777 19.3764 44.9237 19.0768C45.7184 18.9832 47.938 19.0206 48.345 19.1236ZM40.7366 19.1423L41.1922 19.2079L40.5815 20.2377C39.9322 21.3143 39.8062 21.567 38.3039 24.9653L37.3637 27.0717L36.1812 27.0998C35.5222 27.1092 34.9891 27.1092 34.9891 27.0811C34.9891 27.0624 35.0763 26.847 35.1829 26.613C35.2799 26.379 35.3477 26.1824 35.3283 26.1824C35.2992 26.1824 34.9019 26.3696 34.4366 26.6036C32.6145 27.5117 31.1703 27.5024 30.899 26.5943C30.773 26.1824 30.8893 25.396 31.1994 24.6377C32.0814 22.447 34.6111 20.1534 36.9857 19.4045C37.7708 19.1611 39.7868 19.0206 40.7366 19.1423ZM72.2559 19.2453C72.1008 19.3857 70.7923 20.0411 70.9087 19.9287C70.9959 19.8257 72.1977 19.1704 72.3043 19.1611C72.3237 19.1611 72.3043 19.1985 72.2559 19.2453ZM70.6179 20.3968C70.55 20.5653 70.4143 20.9117 70.3271 21.1551C70.2302 21.4079 70.1333 21.5857 70.1139 21.567C70.0654 21.5296 70.395 20.584 70.55 20.2938C70.7245 19.9943 70.7633 20.0598 70.6179 20.3968ZM9.01381 20.2377C9.01381 20.2564 8.91689 20.3219 8.80058 20.3781C8.58735 20.4811 8.58735 20.4717 8.76181 20.3406C8.96535 20.1815 9.01381 20.1628 9.01381 20.2377ZM8.43227 20.6028C8.28689 20.7432 7.5212 21.2581 6.10613 22.1662C5.70875 22.4283 5.29198 22.7092 5.19506 22.7934C5.0206 22.9432 5.0206 22.9432 5.12721 22.7372C5.19506 22.6155 5.35983 22.4845 5.49552 22.4283C5.63121 22.3815 5.88321 22.2317 6.04798 22.1006C6.81367 21.5109 7.24982 21.2019 7.60843 21.0334C7.82166 20.9304 8.10274 20.7619 8.23843 20.6589C8.51951 20.4436 8.63581 20.4155 8.43227 20.6028ZM70.0073 21.8292C69.9782 21.9134 69.9297 21.9602 69.9103 21.9321C69.8813 21.904 69.891 21.8479 69.9297 21.7917C70.017 21.6419 70.0751 21.67 70.0073 21.8292ZM69.8037 22.3628C69.7262 22.4377 69.7165 22.4002 69.7553 22.2411C69.794 22.1194 69.8328 22.0726 69.8619 22.1475C69.8813 22.213 69.8522 22.316 69.8037 22.3628ZM4.94306 22.9432C4.94306 22.9619 4.53598 23.2428 4.05137 23.5704C3.55706 23.8981 3.20814 24.0853 3.28568 24.0011C3.41168 23.8513 4.80737 22.9058 4.90429 22.9058C4.92367 22.9058 4.94306 22.9245 4.94306 22.9432ZM70.017 24.3194C70.5016 25.2555 70.5016 25.2649 69.7359 25.3773C69.4548 25.4241 69.3967 25.4147 69.542 25.3492C69.6487 25.3024 69.8328 25.2555 69.9491 25.2555C70.2496 25.2462 70.298 25.1058 70.1236 24.7781C70.046 24.6283 69.9879 24.4785 69.9976 24.4598C70.017 24.4411 69.9588 24.3475 69.8716 24.2538C69.6196 23.9824 69.2416 23.2053 69.4257 23.3551C69.513 23.43 69.7747 23.8607 70.017 24.3194ZM13.763 24.1602C13.763 24.1789 13.6952 24.2164 13.6176 24.2538C13.5401 24.2819 13.4723 24.2632 13.4723 24.2164C13.4723 24.1602 13.5401 24.1228 13.6176 24.1228C13.6952 24.1228 13.763 24.1415 13.763 24.1602ZM12.7744 24.4036C12.629 24.4411 12.2801 24.4972 11.999 24.5253L11.4853 24.5815L12.0184 24.4598C12.3092 24.3849 12.6581 24.3287 12.7938 24.3287H13.0361L12.7744 24.4036ZM2.18076 24.7781C2.08384 24.8811 1.93845 24.9653 1.85122 24.9653C1.7543 24.9653 1.80276 24.8904 1.98692 24.7781C2.35522 24.5441 2.40368 24.5441 2.18076 24.7781ZM11.2721 24.6564C11.2043 24.6751 11.0686 24.6751 10.9813 24.6564C10.8844 24.6283 10.9426 24.6096 11.0976 24.6096C11.2624 24.6096 11.3303 24.6283 11.2721 24.6564ZM13.133 24.7594C13.0361 24.8436 11.6986 25.7143 11.466 25.8453C11.3981 25.8828 11.34 25.8921 11.34 25.8734C11.34 25.8453 11.6695 25.6113 12.0669 25.3492C12.4643 25.087 12.8132 24.8249 12.8423 24.7781C12.8713 24.7219 12.978 24.6845 13.0652 24.6845C13.1524 24.6845 13.1815 24.7126 13.133 24.7594ZM3.07245 25.0309C2.8786 25.0496 2.56845 25.0496 2.39399 25.0309C2.22922 25.0121 2.39399 24.9934 2.7623 24.9934C3.1403 24.9934 3.27599 25.0121 3.07245 25.0309ZM6.49382 25.059C6.61982 25.1338 6.61982 25.1526 6.47444 25.1526C6.38721 25.1526 6.28059 25.1058 6.25151 25.059C6.17398 24.9373 6.29998 24.9373 6.49382 25.059ZM69.2028 25.5177C68.9605 25.6487 67.274 26.1075 67.1577 26.07C67.0996 26.0513 67.526 25.9015 68.1076 25.7424C69.2125 25.4334 69.4451 25.3866 69.2028 25.5177ZM66.5374 26.3041C66.2951 26.4632 65.6845 26.5943 65.7621 26.4632C65.8202 26.3696 66.3145 26.2104 66.5859 26.1917C66.6828 26.1824 66.6634 26.2198 66.5374 26.3041ZM10.7584 26.3415C10.7584 26.3883 10.6227 26.4913 10.4677 26.5756C10.1284 26.7628 10.0703 26.6411 10.3901 26.4258C10.6227 26.2666 10.7584 26.2385 10.7584 26.3415ZM9.78919 26.9219C9.78919 26.9687 9.64381 27.0905 9.46935 27.1934C9.2852 27.2964 9.0235 27.4462 8.88781 27.5398C8.39351 27.8488 8.62612 27.6053 9.17858 27.2215C9.79889 26.8002 9.78919 26.8002 9.78919 26.9219ZM69.9588 26.9781C69.9879 27.0062 68.6407 27.0156 66.9639 27.0156C65.2871 27.0062 64.095 26.9687 64.3082 26.9407C64.7541 26.8751 69.891 26.9126 69.9588 26.9781ZM71.0443 27.0436C70.9668 27.1092 70.8408 27.2309 70.7633 27.3058C70.6567 27.4275 70.647 27.4181 70.6954 27.2402C70.7536 27.0624 70.7245 27.0343 70.395 26.9968C70.1236 26.9687 70.1817 26.9594 70.6082 26.95C71.0734 26.9313 71.151 26.95 71.0443 27.0436ZM70.3659 27.7832C70.298 27.8862 70.2302 27.9517 70.2011 27.9236C70.172 27.8956 70.2011 27.8113 70.269 27.727C70.4434 27.5305 70.4919 27.5492 70.3659 27.7832ZM8.5292 27.727C8.5292 27.7551 8.2772 27.933 7.97674 28.1202C7.66659 28.3075 6.99782 28.7194 6.49382 29.0377C4.81706 30.0956 2.66537 31.3969 2.42307 31.5092C2.19045 31.6122 2.19045 31.6122 2.37461 31.4717C2.6363 31.2752 4.60383 30.0394 5.12721 29.7398C5.35013 29.6088 6.02859 29.1968 6.61982 28.8224C7.63751 28.1764 8.45166 27.6802 8.50981 27.6802C8.51951 27.6802 8.5292 27.699 8.5292 27.727ZM69.8813 28.4105C69.8813 28.4573 69.7456 28.6071 69.5808 28.7662L69.2707 29.0377L69.5033 28.6913C69.7262 28.3543 69.8813 28.2419 69.8813 28.4105ZM19.8207 28.7756C19.7916 28.9254 19.7141 29.0751 19.6656 29.1313C19.5687 29.2156 19.6365 28.7756 19.7432 28.5883C19.8401 28.4292 19.8885 28.5415 19.8207 28.7756ZM31.306 29.0377C31.3739 29.2717 31.4611 29.459 31.4999 29.459C31.5386 29.459 31.7906 29.2717 32.062 29.0377C32.4497 28.7007 32.6145 28.6164 32.9053 28.6164C33.322 28.6164 33.3511 28.4666 32.6339 30.0862C32.1396 31.2283 32.1299 31.2377 31.8197 31.2377C31.6453 31.2377 31.4999 31.2283 31.4999 31.2096C31.4999 31.1909 31.6065 30.91 31.7519 30.5917C31.8876 30.2641 31.9748 29.9832 31.9651 29.9645C31.9457 29.9458 31.7325 30.1237 31.4999 30.3483C31.2576 30.573 31.0346 30.7603 30.9959 30.7696C30.9571 30.7696 30.899 30.6198 30.8602 30.442C30.8311 30.2641 30.7633 30.0862 30.7148 30.0581C30.6663 30.0394 30.5016 30.2922 30.3465 30.6292C30.0848 31.1815 30.0363 31.2377 29.765 31.2377C29.6002 31.2377 29.4645 31.2096 29.4645 31.1628C29.4645 31.1254 29.7068 30.5356 30.0073 29.8522C30.55 28.6351 30.5597 28.6164 30.8699 28.6164C31.1606 28.6164 31.1897 28.6539 31.306 29.0377ZM35.7451 28.7288C35.9583 28.9347 35.8808 29.9177 35.5997 30.6011C35.338 31.2096 35.3089 31.2377 34.9988 31.2377C34.6596 31.2377 34.6499 31.2003 34.8437 30.7415C34.9019 30.6011 34.8534 30.5824 34.4173 30.5824C33.9326 30.5824 33.9036 30.5917 33.7679 30.91C33.6613 31.1722 33.574 31.2377 33.3608 31.2377C33.2057 31.2377 33.0603 31.2096 33.0216 31.1815C32.9925 31.1441 33.1282 30.7977 33.3414 30.4045C33.7582 29.5994 34.4948 28.7475 34.8243 28.6819C35.2605 28.5977 35.6288 28.6164 35.7451 28.7288ZM39.0598 28.71C39.0598 28.7568 39.0114 28.9066 38.9435 29.0377C38.8466 29.2343 38.7691 29.2717 38.3911 29.2717H37.9452L37.5188 30.2547C37.1311 31.1534 37.0729 31.2377 36.8306 31.2377C36.6852 31.2377 36.5496 31.2096 36.5205 31.1815C36.4817 31.1534 36.6465 30.7134 36.8791 30.1985L37.3055 29.2717H36.9857C36.5689 29.2717 36.5205 29.2062 36.6949 28.8879L36.8403 28.6164H37.9452C38.5849 28.6164 39.0598 28.6539 39.0598 28.71ZM41.9675 28.6632C41.9675 28.7007 41.8997 28.8411 41.8221 28.9909C41.6768 29.2624 41.6477 29.2717 40.9402 29.2717H40.2132L39.9709 29.796C39.8352 30.0862 39.7189 30.3671 39.7092 30.4326C39.6995 30.4981 39.9418 30.5543 40.3877 30.5824L41.0952 30.6292L40.9014 30.9288C40.7075 31.2377 40.7075 31.2377 39.9515 31.2377C39.3118 31.2377 39.1568 31.2096 39.0114 31.0505C38.7982 30.8258 38.8466 30.6011 39.3797 29.5713C39.6123 29.1032 39.8546 28.7568 39.9709 28.71C40.1938 28.6164 41.9675 28.5883 41.9675 28.6632ZM43.4214 28.7288C43.4117 28.7943 43.3535 28.9534 43.276 29.0845C43.0531 29.459 43.0918 29.6462 43.402 29.6462C43.9351 29.6462 44.0998 29.5432 44.3034 29.0751C44.4972 28.6539 44.536 28.6164 44.8364 28.6164C45.0206 28.6164 45.166 28.6445 45.166 28.6913C45.166 28.7756 44.3906 30.5075 44.158 30.9288C44.032 31.1722 43.9351 31.2377 43.7121 31.2377C43.5474 31.2377 43.4214 31.219 43.4214 31.2003C43.4214 31.1815 43.5086 30.9662 43.6152 30.7228C43.7218 30.4794 43.8091 30.2641 43.8091 30.2454C43.8091 30.2266 43.5764 30.2079 43.2857 30.2079H42.7623L42.5491 30.7228C42.3455 31.2096 42.3165 31.2377 41.9966 31.2377C41.5895 31.2377 41.5701 31.322 42.2777 29.7679C42.7817 28.6351 42.8011 28.6164 43.1112 28.6164C43.2954 28.6164 43.4214 28.6632 43.4214 28.7288ZM49.8958 28.7288C50.0703 28.8973 50.0412 29.1126 49.7698 29.4964C49.605 29.7211 49.5469 29.9177 49.5857 30.0581C49.6535 30.339 49.2949 30.9194 48.9363 31.0973C48.6552 31.2377 46.8137 31.3032 46.8137 31.1722C46.8137 31.1441 47.056 30.5543 47.3661 29.8615L47.9089 28.6164H48.849C49.4403 28.6164 49.8183 28.6539 49.8958 28.7288ZM51.6598 28.6632C51.6598 28.6913 51.4853 29.1126 51.2721 29.6088C51.0589 30.1049 50.8844 30.5262 50.8844 30.5543C50.8844 30.573 51.117 30.5824 51.3884 30.5637L51.8924 30.5356L52.3383 29.5713C52.7647 28.6445 52.7841 28.6164 53.0846 28.6164C53.259 28.6164 53.4044 28.6445 53.4044 28.6819C53.4044 28.813 52.4061 30.9194 52.2607 31.0692C52.1444 31.2096 51.9506 31.2377 51.2236 31.2377C49.9055 31.2377 49.8958 31.2003 50.6227 29.5526C51.0201 28.6351 51.0298 28.6164 51.34 28.6164C51.5144 28.6164 51.6598 28.6351 51.6598 28.6632ZM56.5059 28.6632C56.5059 28.6819 56.4575 28.813 56.3896 28.9441C56.2927 29.1594 56.2346 29.1781 55.5755 29.1781C55.0618 29.1781 54.8292 29.2156 54.7226 29.3279C54.4512 29.5807 54.5481 29.6462 55.1975 29.6462C55.6918 29.6462 55.8469 29.6837 55.8953 29.796C55.9826 30.0113 55.7596 30.6292 55.4979 30.9288C55.275 31.1815 55.2266 31.1909 54.1895 31.219C53.5983 31.2377 53.1136 31.2283 53.1136 31.1909C53.1136 31.1628 53.1815 31.013 53.259 30.8632C53.4044 30.6011 53.4335 30.5917 54.2089 30.5637C54.8389 30.5449 55.0036 30.5075 55.0036 30.3951C55.0036 30.3015 54.9164 30.2641 54.7613 30.2734C54.3058 30.3109 53.9375 30.2079 53.8115 30.0113C53.6952 29.8428 53.7146 29.7492 53.9278 29.3279C54.0635 29.0564 54.2767 28.7849 54.393 28.7288C54.6063 28.6351 56.5059 28.5696 56.5059 28.6632ZM59.5105 28.7288C59.5008 29.019 59.1713 29.2624 58.7545 29.2905L58.3281 29.3185L57.9307 30.2734C57.5333 31.219 57.5236 31.2377 57.2135 31.2377C57.039 31.2377 56.8936 31.2003 56.8936 31.1441C56.8936 31.0973 57.0681 30.6854 57.2813 30.2454C57.4945 29.796 57.669 29.3934 57.669 29.356C57.669 29.3092 57.5139 29.2717 57.3298 29.2717C56.9615 29.2717 56.9421 29.2249 57.0875 28.8598C57.1747 28.6164 57.1844 28.6164 58.3475 28.6164C59.2101 28.6164 59.5105 28.6445 59.5105 28.7288ZM62.4182 28.6819C62.4085 28.8785 62.1275 29.2249 61.9627 29.2343C61.8658 29.2343 61.5168 29.2437 61.197 29.253C60.693 29.2717 60.5961 29.2998 60.5476 29.459C60.4992 29.6275 60.5476 29.6462 61.0807 29.6462C61.4005 29.6462 61.6428 29.6743 61.6235 29.7117C61.3133 30.3296 61.3618 30.3015 60.7027 30.3015C60.2375 30.3015 60.0921 30.3296 60.0921 30.442C60.0921 30.5449 60.2568 30.5824 60.7996 30.6011L61.5168 30.6292L61.3811 30.9288L61.2551 31.2377H60.3441C59.0259 31.2377 58.9872 31.1441 59.7044 29.7117C60.2472 28.6445 60.2956 28.6164 61.4587 28.6164C61.9821 28.6164 62.4182 28.6445 62.4182 28.6819ZM65.2581 28.813C65.4131 29.0471 65.2484 29.459 64.8801 29.7866C64.5505 30.0768 64.4536 30.3015 64.6571 30.3015C64.7928 30.3015 64.6959 30.7322 64.4924 31.0224C64.2985 31.3126 63.7751 31.322 63.7751 31.0411C63.7751 30.9381 63.8236 30.7603 63.8818 30.6573C64.0078 30.4326 63.9302 30.3483 63.5231 30.2734C63.2421 30.2266 63.213 30.2454 62.9707 30.7322C62.7381 31.1815 62.6799 31.2377 62.4182 31.2377C62.2631 31.2377 62.1275 31.2003 62.1275 31.1628C62.1275 31.1254 62.3407 30.6105 62.5927 30.0207C62.8544 29.4309 63.087 28.8692 63.1258 28.7756C63.1839 28.6258 63.3002 28.6164 64.1725 28.6351C64.9479 28.6539 65.1805 28.6913 65.2581 28.813ZM21.4587 29.8054C21.1195 30.4139 20.567 31.4062 20.2375 32.0054C19.9079 32.6045 19.6172 33.082 19.5978 33.0632C19.5493 33.0164 20.0533 31.9586 20.1599 31.893C20.1987 31.8649 20.4216 31.4624 20.6445 31.0037C20.8675 30.5356 21.2067 29.9177 21.3908 29.6181C21.575 29.3185 21.7107 29.0564 21.6816 29.0283C21.6622 29.0002 21.3036 29.1126 20.8868 29.2717C20.4701 29.4309 20.1212 29.5432 20.0921 29.5245C20.0727 29.4964 20.2181 29.4122 20.4216 29.3373C20.6252 29.253 21.0516 29.0845 21.3715 28.9534C21.6913 28.8224 21.9821 28.71 22.0208 28.71C22.0499 28.71 21.7979 29.2062 21.4587 29.8054ZM69.0865 29.3841C69.0671 29.4402 68.9411 29.5526 68.8151 29.6368L68.5825 29.7866L68.7667 29.5339C68.9605 29.2717 69.1544 29.1781 69.0865 29.3841ZM17.7078 29.4215C17.6787 29.4496 17.5915 29.459 17.5236 29.4309C17.4461 29.4028 17.4752 29.3747 17.5818 29.3747C17.6884 29.3654 17.7465 29.3934 17.7078 29.4215ZM17.2038 29.5526C17.0972 29.5994 16.9421 29.6368 16.8645 29.6368C16.7773 29.6368 16.787 29.5994 16.913 29.5526C17.0196 29.5058 17.1747 29.4683 17.2522 29.4683C17.3395 29.4683 17.3298 29.5058 17.2038 29.5526ZM16.6416 29.7024C16.6126 29.7305 16.5253 29.7398 16.4575 29.7117C16.3799 29.6837 16.409 29.6556 16.5156 29.6556C16.6222 29.6462 16.6804 29.6743 16.6416 29.7024ZM16.2539 29.796C16.2249 29.8241 16.1376 29.8334 16.0698 29.8054C15.9922 29.7773 16.0213 29.7492 16.1279 29.7492C16.2346 29.7398 16.2927 29.7679 16.2539 29.796ZM15.779 29.9271C15.5852 30.0394 13.889 30.3951 13.2784 30.4513C13.0361 30.47 13.2396 30.4045 13.7146 30.3015C14.1992 30.1985 14.8486 30.0488 15.1684 29.9832C15.8856 29.8241 15.9922 29.8147 15.779 29.9271ZM68.408 30.1143C68.3402 30.2079 68.2724 30.2734 68.2433 30.2547C68.2045 30.2173 68.4177 29.9271 68.4856 29.9271C68.505 29.9271 68.4759 30.0113 68.408 30.1143ZM12.629 30.5543C12.5612 30.573 12.4449 30.573 12.3867 30.5543C12.3189 30.5262 12.3673 30.5075 12.503 30.5075C12.6387 30.5075 12.6872 30.5262 12.629 30.5543ZM11.0492 30.8258C10.4677 30.9381 9.61473 30.9943 9.83765 30.9007C9.99273 30.8351 11.0686 30.6947 11.3884 30.6947C11.5532 30.6947 11.3981 30.7509 11.0492 30.8258ZM8.43227 31.1441C7.67628 31.322 5.23383 31.5092 5.59244 31.3688C5.71844 31.3126 8.13181 31.0692 8.5292 31.0692C8.70366 31.0692 8.68427 31.0879 8.43227 31.1441ZM68.9314 31.8369L69.135 32.1271L68.9024 31.893C68.7764 31.762 68.6019 31.5747 68.5244 31.4717C68.3887 31.2939 68.3887 31.2939 68.5534 31.4156C68.6504 31.4905 68.8151 31.6777 68.9314 31.8369ZM4.60383 31.5186C3.83814 31.6122 2.57814 31.6215 2.90768 31.5279C3.04337 31.4905 3.60552 31.453 4.16768 31.453C5.06906 31.4437 5.11752 31.453 4.60383 31.5186ZM69.5227 32.5109L69.8037 32.8292L64.8704 32.8105L59.9467 32.7824L64.725 32.7356L69.513 32.6888L69.2997 32.4266C68.9993 32.0615 69.2028 32.1271 69.5227 32.5109ZM33.9326 32.8479C34.0296 32.9696 34.1071 33.1007 34.1168 33.1475C34.1168 33.1943 33.3026 33.1943 32.2559 33.1569C31.1219 33.1194 30.2205 33.1288 29.9782 33.1849C29.7456 33.2318 29.5614 33.2411 29.5614 33.2037C29.5614 33.0539 30.6567 32.9977 32.2268 33.0632C33.574 33.1194 33.826 33.1101 33.826 32.9977C33.826 32.9228 33.7776 32.8198 33.7097 32.7543C33.6419 32.6888 33.6322 32.642 33.6709 32.642C33.7097 32.642 33.826 32.7356 33.9326 32.8479ZM34.1846 32.6981C34.1556 32.7262 34.0683 32.7356 34.0005 32.7075C33.9229 32.6794 33.952 32.6513 34.0586 32.6513C34.1653 32.642 34.2234 32.6701 34.1846 32.6981ZM53.0458 32.8011C49.6826 32.8198 44.1386 32.8198 40.7366 32.8011C37.3346 32.7918 40.0969 32.7824 46.8621 32.7824C53.637 32.7824 56.4187 32.7918 53.0458 32.8011ZM27.7684 33.1101C27.9525 33.1569 27.8265 33.1662 27.4291 33.1381C27.0802 33.1101 26.7797 33.0726 26.7604 33.0539C26.6828 32.9883 27.4679 33.0352 27.7684 33.1101ZM26.2467 33.1756C26.1497 33.1943 25.9947 33.1943 25.9074 33.1756C25.8105 33.1475 25.8881 33.1288 26.0722 33.1288C26.2564 33.1288 26.3339 33.1475 26.2467 33.1756ZM28.3693 33.2598C28.3402 33.2879 28.253 33.2973 28.1851 33.2692C28.1076 33.2411 28.1367 33.213 28.2433 33.213C28.3499 33.2037 28.408 33.2318 28.3693 33.2598ZM24.977 33.3535C24.9479 33.3815 24.8607 33.3909 24.7928 33.3628C24.7153 33.3347 24.7444 33.3066 24.851 33.3066C24.9576 33.2973 25.0157 33.3254 24.977 33.3535ZM29.009 33.3628C28.9411 33.3815 28.8054 33.3815 28.7182 33.3628C28.6213 33.3347 28.6794 33.316 28.8345 33.316C28.9993 33.316 29.0671 33.3347 29.009 33.3628ZM23.7364 33.6249C23.6007 33.7467 18.7158 34.739 18.6285 34.6547C18.6092 34.636 18.677 34.4769 18.7933 34.3084L19.0065 33.9994L18.9387 34.2709L18.8708 34.533L19.2973 34.4675C19.5299 34.4394 20.0727 34.3271 20.4992 34.2335C22.8059 33.6998 23.8527 33.5032 23.7364 33.6249Z" fill="#9747FF"/>
</g>
<path d="M23.5469 11.2294C22.2327 13.4218 20.4064 16.624 20.4451 16.6624C20.5417 16.7586 23.5662 15.1912 24.6098 14.5085C25.866 13.6815 27.2671 12.441 27.4603 11.9891C27.6633 11.489 27.5666 11.2871 26.9289 10.9505C26.3878 10.662 25.0446 10.1332 24.5421 10.0082C24.3489 9.96008 24.2329 10.0947 23.5469 11.2294Z" fill="#9747FF"/>
<path d="M27.0484 13.3488C27.0484 13.4625 25.4567 14.6437 24.5692 15.1774C23.2669 15.9648 22.1382 16.5248 20.6912 17.1022C19.495 17.5834 19.138 17.6972 19.138 17.6097C19.138 17.5484 20.0448 16.0523 20.8745 14.7399C21.3182 14.0487 21.6848 13.4538 21.7041 13.4275C21.7234 13.4013 21.6173 13.3925 21.4726 13.4188C21.077 13.4975 19.4274 13.48 19.0416 13.4013L18.6943 13.34L18.0769 14.3287C17.7393 14.8711 17.1701 15.7898 16.8132 16.3673C15.8485 17.9159 15.9546 17.8284 15.2407 17.7584L14.633 17.7059L14.5655 17.9859C14.5365 18.1434 14.5076 18.5021 14.5076 18.7821C14.5076 19.0795 14.4593 19.3333 14.3918 19.3858C14.1796 19.552 11.7968 20.9081 10.7936 21.4331C10.263 21.7131 9.80959 21.9581 9.78065 21.9843C9.68418 22.0718 12.038 21.7743 13.1088 21.5643C14.1121 21.3631 17.4306 20.4094 18.9451 19.8845C22.5048 18.6508 27.7912 15.7373 29.7206 13.9437L30.2222 13.48L29.1225 13.5063C28.3507 13.5325 27.8877 13.5063 27.5404 13.41C27.2703 13.34 27.0484 13.3138 27.0484 13.3488Z" fill="#9747FF"/>
<path d="M54.7315 13.8393C54.5728 14.1163 54.2555 14.7548 54.0175 15.2487C53.7795 15.7426 53.5216 16.2485 53.4423 16.369C53.353 16.4774 53.3134 16.6099 53.3431 16.6461C53.4324 16.7424 55.2075 16.4774 55.3463 16.3329C55.4158 16.2726 55.7331 15.7546 56.0405 15.2005C56.3579 14.6343 56.6752 14.1163 56.7546 14.032C56.9231 13.8634 56.9331 13.6104 56.7843 13.4899C56.7248 13.4418 56.2984 13.3936 55.8422 13.3695L55.0092 13.3333L54.7315 13.8393Z" fill="#9747FF"/>
<path d="M63.4259 13.3906C63.3985 13.4308 63.0964 14.1775 62.7486 15.0608C62.2818 16.2491 62.1537 16.6667 62.2544 16.6667C62.5747 16.6667 64.0758 16.1769 64.7714 15.8396C66.0253 15.2454 66.0345 15.2294 65.2016 15.2213C64.808 15.2213 64.4877 15.2053 64.4877 15.1812C64.4877 15.1571 64.625 14.8199 64.7897 14.4345C64.9636 14.049 65.1284 13.6395 65.165 13.5191C65.2199 13.3103 65.2107 13.3023 65.0002 13.3746C64.8721 13.4147 64.4968 13.4227 64.1215 13.3826C63.7646 13.3505 63.4534 13.3505 63.4259 13.3906Z" fill="#9747FF"/>
<path d="M59.0115 13.4508C58.9122 13.5617 58.4156 14.8478 57.7824 16.6219C57.7079 16.8436 58.5522 16.2116 59.4089 15.4022C60.1538 14.7148 61.3333 13.484 61.3333 13.4064C61.3333 13.3953 60.8367 13.3621 60.2407 13.3399C59.4461 13.3177 59.0985 13.351 59.0115 13.4508Z" fill="#9747FF"/>
<path d="M48.4654 11.693C47.7815 12.1228 47.0513 12.8772 46.58 13.6228C46.2842 14.1053 46.1271 14.6667 46.2842 14.6667C46.3859 14.6667 46.8572 14.4123 47.4025 14.0702C47.6983 13.886 48.2066 13.5965 48.5208 13.4386C49.0477 13.1667 49.1123 13.0965 49.3804 12.5526C49.5375 12.2193 49.6946 11.8158 49.7223 11.6491L49.7778 11.3333H49.3989C49.1216 11.3333 48.8905 11.4211 48.4654 11.693Z" fill="#9747FF"/>
<path d="M44.1854 13.8318C43.7384 14.5411 43.5555 15.0875 43.5555 15.7393C43.5555 16.1994 43.5962 16.3145 43.779 16.4391C44.3987 16.8512 45.8514 16.4678 47.426 15.4805C48.0355 15.1067 48.5638 14.8287 48.5943 14.8766C48.6146 14.9245 48.4825 15.3271 48.2794 15.7777C48.0863 16.2282 47.9238 16.6212 47.9238 16.6499C47.9238 16.6787 48.0254 16.6691 48.1574 16.6308C48.2794 16.5924 48.6451 16.487 48.9701 16.4103L49.5695 16.2569L50.1079 15.0108C50.4127 14.3206 50.6565 13.6976 50.6667 13.6113C50.6667 13.4867 50.5143 13.4388 49.9555 13.3908C49.0819 13.3046 49.0108 13.3237 47.9847 13.9564C46.8673 14.6274 46.5625 14.7712 46.1968 14.7712C45.7905 14.7712 45.6279 14.4261 45.7701 13.8414C45.8209 13.6113 45.8413 13.41 45.8108 13.3813C45.7803 13.3525 45.4755 13.3333 45.1301 13.3333H44.5105L44.1854 13.8318Z" fill="#9747FF"/>
<path d="M41.8282 11.615C41.0268 12.0136 40.7692 12.209 40.3018 12.8107C39.9869 13.2093 39.9392 13.3109 40.0633 13.3265C40.5593 13.4125 41.9999 12.67 42.4769 12.0917C42.6964 11.8182 42.7345 11.3884 42.5437 11.3337C42.496 11.3259 42.1716 11.4509 41.8282 11.615Z" fill="#9747FF"/>
<path d="M36.8387 13.8691C36.6543 14.1842 36.4945 14.6667 36.4699 15.0114C36.4084 15.553 36.4453 15.6416 36.7281 15.9174C37.3797 16.5378 38.474 16.715 41.179 16.656L42.1626 16.6363L42.4208 16.2128L42.6667 15.7992H41.3019C39.347 15.7992 38.9781 15.5727 38.7322 14.2236C38.597 13.4161 38.6338 13.4456 37.6256 13.3471C37.1584 13.3077 37.1584 13.3176 36.8387 13.8691Z" fill="#9747FF"/>
<path d="M37.4082 13.2397C37.4858 13.2865 37.6021 13.3333 37.6505 13.3333C37.7087 13.3333 37.6796 13.2865 37.6021 13.2397C37.5245 13.1929 37.4179 13.1461 37.3598 13.1461C37.3113 13.1461 37.3307 13.1929 37.4082 13.2397Z" fill="#9747FF"/>
<path d="M40.2227 13.8346L39.7869 13.8904L40.3486 13.8997C40.6488 13.909 40.9006 13.8997 40.9006 13.8811C40.9006 13.7974 40.6295 13.7788 40.2227 13.8346Z" fill="#9747FF"/>
<path d="M32.2463 14.1711C31.4515 15.5379 30.9088 16.5583 30.9475 16.5958C30.9863 16.6332 32.4789 16.4647 32.5177 16.4273C32.6534 16.2681 34.02 13.5064 33.9812 13.469C33.9521 13.4409 33.7486 13.4222 33.5257 13.4315C33.3125 13.4409 33.0508 13.4034 32.9538 13.3566C32.7891 13.2724 32.7115 13.3754 32.2463 14.1711Z" fill="#9747FF"/>
<path d="M46.6974 24.4878C46.2418 25.0588 45.8445 25.7797 45.8445 26.0418C45.8445 26.1542 45.9511 26.3414 46.0771 26.4537C46.3775 26.7252 47.3468 26.8001 49.2658 26.6971L50.5937 26.6316L50.8844 26.2291C51.0492 26.0044 51.1752 25.789 51.1752 25.7422C51.1752 25.7048 50.6615 25.6673 50.0315 25.6673C48.6649 25.6673 48.3644 25.5456 48.3644 25.012C48.3644 24.8435 48.4032 24.5907 48.4614 24.4597C48.5098 24.3286 48.5195 24.2163 48.4807 24.2069C48.442 24.1976 48.2384 24.1788 48.0252 24.1695C47.812 24.1507 47.5115 24.1133 47.3468 24.0852C47.0948 24.0384 47.0172 24.0946 46.6974 24.4878Z" fill="#9747FF"/>
<path d="M16.7096 25.2368C15.5465 26.2385 14.5094 26.9874 13.0168 27.9049C12.8521 28.0079 12.7261 28.1108 12.7358 28.1296C12.8327 28.2138 17.1554 27.39 17.6207 27.1934C17.7757 27.1278 18.2797 26.6317 18.745 26.0887C19.2102 25.5457 19.782 24.8904 20.0146 24.6283L20.4411 24.1508L19.7433 24.1227C19.3556 24.1134 18.8322 24.0946 18.5608 24.0759L18.0762 24.0572L16.7096 25.2368Z" fill="#9747FF"/>
<path d="M25.6555 24.0852C25.6265 24.1133 24.7735 24.1414 23.7558 24.1414C22.2342 24.1414 21.8949 24.1695 21.7883 24.2818C21.6623 24.4316 21.5363 26.744 21.6526 26.744C21.6914 26.744 22.0694 26.5661 22.5152 26.3601C23.8334 25.7142 26.2565 24.0384 25.8688 24.0291C25.7815 24.0291 25.6943 24.0572 25.6555 24.0852Z" fill="#9747FF"/>
<path d="M27.5842 24.3286C27.3322 24.6563 26.6828 25.7422 25.5392 27.7269C25.1612 28.3916 24.6959 29.1967 24.5215 29.5056C23.9302 30.5074 23.5522 31.1908 23.5522 31.2469C23.5522 31.3125 24.4342 31.1252 25.2484 30.9005C25.7039 30.7788 25.7427 30.7414 25.9075 30.3108C26.2758 29.2903 27.4195 28.3073 29.1544 27.5116C29.5324 27.3337 29.8522 27.1746 29.8522 27.1652C29.8522 27.1465 29.6099 27.0622 29.3191 26.978C29.0284 26.9031 28.7861 26.8001 28.7861 26.7627C28.7861 26.7346 29.0865 26.1354 29.4548 25.4333L30.1236 24.1695L29.0478 24.1414C28.4565 24.1226 27.9428 24.0946 27.9041 24.0665C27.8653 24.0478 27.7199 24.1601 27.5842 24.3286Z" fill="#9747FF"/>
<path d="M60.2278 24.8436C59.9274 25.3492 59.5494 25.9577 59.404 26.1917C59.2489 26.4258 59.1229 26.6504 59.1229 26.6879C59.1229 26.7253 59.4815 26.744 59.9177 26.7253L60.7124 26.6972L61.1777 25.9483C61.6526 25.19 62.2244 24.1696 62.2244 24.0853C62.2244 24.0572 61.953 24.0385 61.6138 24.0479C61.2746 24.0572 60.945 24.0291 60.8869 23.9917C60.819 23.9543 60.5767 24.2725 60.2278 24.8436Z" fill="#9747FF"/>
<path d="M57.9113 20.6963C57.4073 20.9022 56.4381 21.7541 56.0213 22.3439C55.8081 22.6435 55.6336 22.915 55.6336 22.9431C55.6336 23.1584 56.7095 22.7839 57.3976 22.3346C58.0276 21.9226 58.4735 21.286 58.425 20.8835C58.3862 20.5746 58.2893 20.5371 57.9113 20.6963Z" fill="#9747FF"/>
<path d="M52.8811 24.2351C52.6582 24.3568 52.5031 24.9372 52.571 25.3866C52.6582 25.9483 52.9199 26.2291 53.579 26.4725C54.0539 26.6598 54.3544 26.6879 55.8373 26.7253L57.5431 26.7627L57.6497 26.4913C57.6982 26.3508 57.7757 26.1636 57.8048 26.0887C57.863 25.967 57.7273 25.9483 56.8259 25.9764C55.9633 26.0044 55.721 25.9764 55.4399 25.8359C55.0134 25.6206 54.6936 25.1619 54.6064 24.6283L54.5482 24.2164L54.0927 24.207C53.8504 24.207 53.5111 24.1883 53.3367 24.1789C53.1719 24.1695 52.9587 24.1883 52.8811 24.2351Z" fill="#9747FF"/>
<path d="M44.3034 23.9541C44.2937 24.132 44.1677 24.1507 43.0919 24.132C42.7818 24.1227 42.4813 24.0946 42.4231 24.0571C42.365 24.0197 42.3553 24.1788 42.3941 24.5158C42.4522 24.9465 42.4328 25.0588 42.2584 25.2741C41.8222 25.8078 40.2424 25.9576 39.6221 25.5269L39.3604 25.3397L39.1472 25.789C39.0405 26.0325 38.8758 26.3695 38.7982 26.5473L38.6625 26.8563L39.9031 26.8095C41.2698 26.7627 41.987 26.6129 42.9174 26.1729C44.1193 25.6112 44.6621 24.8435 44.4101 24.0946C44.3616 23.9261 44.3131 23.8699 44.3034 23.9541Z" fill="#9747FF"/>
<path d="M36.7338 21.4359C35.8227 21.7542 34.6693 22.8495 34.0684 23.9448C33.6419 24.7312 33.6613 24.9372 34.1363 24.7499C34.3107 24.675 34.9601 24.3193 35.5707 23.9635L36.6853 23.3082L37.0536 22.578C37.6449 21.4265 37.5576 21.1457 36.7338 21.4359Z" fill="#9747FF"/>
<path d="M36.1523 24.1507C36.0166 24.2163 35.5513 24.4784 35.1152 24.7218C33.8261 25.452 33.2834 25.4052 33.3512 24.572L33.39 24.1695H32.634H31.8877L31.6357 24.6844C31.3255 25.3303 31.2092 26.4163 31.4321 26.6971C31.8295 27.2027 33.8261 26.6503 35.5417 25.555C35.8227 25.3678 36.0844 25.2367 36.1135 25.2648C36.1329 25.2929 36.0457 25.6018 35.91 25.9482C35.7743 26.2946 35.6677 26.5942 35.6677 26.6129C35.6677 26.6316 35.9875 26.6503 36.3752 26.6503C37.0633 26.6503 37.0924 26.641 37.2087 26.3882C37.3153 26.1729 37.8387 24.9559 38.0907 24.3567C38.1586 24.1882 38.1198 24.1695 37.6158 24.1507C37.3153 24.1414 36.918 24.1133 36.7338 24.0758C36.5206 24.0478 36.2976 24.0665 36.1523 24.1507Z" fill="#9747FF"/>
<path d="M34.7178 29.487C34.301 29.8989 34.3107 30.0393 34.776 30.0019C35.1249 29.9738 35.1346 29.9644 35.1637 29.5712C35.183 29.3559 35.154 29.178 35.1152 29.178C35.0667 29.178 34.8923 29.3185 34.7178 29.487Z" fill="#9747FF"/>
<path d="M48.3256 29.3279C48.2384 29.5526 48.2384 29.5526 48.6455 29.5526C48.8975 29.5526 49.0429 29.5057 49.0816 29.4028C49.1689 29.1781 49.1689 29.1781 48.7618 29.1781C48.5098 29.1781 48.3644 29.2249 48.3256 29.3279Z" fill="#9747FF"/>
<path d="M48.0736 30.292C47.9379 30.3295 47.8216 30.4325 47.8022 30.5167C47.7538 30.7601 48.5098 30.7414 48.6455 30.498C48.8102 30.2171 48.6164 30.1423 48.0736 30.292Z" fill="#9747FF"/>
<path d="M63.591 29.384C63.5134 29.5806 63.5425 29.5993 63.843 29.6274C64.1919 29.6555 64.4536 29.5244 64.4536 29.3091C64.4536 29.2155 64.3276 29.1781 64.0659 29.1781C63.746 29.1781 63.6588 29.2155 63.591 29.384Z" fill="#9747FF"/>
</g>
</g>
<defs>
<filter id="filter0_d_176048_615" x="-59.4355" y="-54.7688" width="198.871" height="149.538" filterUnits="userSpaceOnUse" color-interpolation-filters="sRGB">
<feFlood flood-opacity="0" result="BackgroundImageFix"/>
<feColorMatrix in="SourceAlpha" type="matrix" values="0 0 0 0 0 0 0 0 0 0 0 0 0 0 0 0 0 0 127 0" result="hardAlpha"/>
<feOffset/>
<feGaussianBlur stdDeviation="29.7177"/>
<feComposite in2="hardAlpha" operator="out"/>
<feColorMatrix type="matrix" values="0 0 0 0 0.847059 0 0 0 0 0.760784 0 0 0 0 0.898039 0 0 0 0.5 0"/>
<feBlend mode="normal" in2="BackgroundImageFix" result="effect1_dropShadow_176048_615"/>
<feBlend mode="normal" in="SourceGraphic" in2="effect1_dropShadow_176048_615" result="shape"/>
</filter>
<filter id="filter1_d_176048_615" x="-35.6613" y="-30.9946" width="151.323" height="101.989" filterUnits="userSpaceOnUse" color-interpolation-filters="sRGB">
<feFlood flood-opacity="0" result="BackgroundImageFix"/>
<feColorMatrix in="SourceAlpha" type="matrix" values="0 0 0 0 0 0 0 0 0 0 0 0 0 0 0 0 0 0 127 0" result="hardAlpha"/>
<feOffset/>
<feGaussianBlur stdDeviation="17.8306"/>
<feComposite in2="hardAlpha" operator="out"/>
<feColorMatrix type="matrix" values="0 0 0 0 0.490196 0 0 0 0 0.309804 0 0 0 0 0.639216 0 0 0 0.15 0"/>
<feBlend mode="normal" in2="BackgroundImageFix" result="effect1_dropShadow_176048_615"/>
<feBlend mode="normal" in="SourceGraphic" in2="effect1_dropShadow_176048_615" result="shape"/>
</filter>
<clipPath id="clip0_176048_615">
<rect width="80" height="40" rx="12" fill="white"/>
</clipPath>
</defs>
</svg>
