<svg aria-hidden="true" style="position: absolute; width: 0; height: 0; overflow: hidden;" version="1.1" xmlns="http://www.w3.org/2000/svg" xmlns:xlink="http://www.w3.org/1999/xlink">
<defs>
<symbol id="icon-star" viewBox="0 0 34 32">
<path d="M6.54 32l2.813-11.835-9.352-7.957 12.319-1.047 4.825-11.162 4.825 11.16 12.317 1.047-9.352 7.957 2.815 11.835-10.604-6.281-10.604 6.284z"></path>
</symbol>
<symbol id="icon-circle" viewBox="0 0 32 32">
<path d="M29 16c0-2.571-0.762-5.085-2.191-7.222s-3.459-3.804-5.834-4.788c-2.375-0.984-4.989-1.241-7.511-0.74s-4.838 1.74-6.656 3.558-3.056 4.134-3.558 6.656c-0.502 2.522-0.244 5.136 0.74 7.511s2.65 4.406 4.788 5.834c2.138 1.428 4.651 2.191 7.222 2.191 3.447-0.004 6.751-1.374 9.188-3.812s3.808-5.742 3.812-9.188zM5 16c0-2.176 0.645-4.302 1.854-6.111s2.927-3.219 4.937-4.051c2.010-0.833 4.222-1.050 6.355-0.626s4.094 1.472 5.632 3.010c1.538 1.538 2.586 3.498 3.010 5.632s0.207 4.346-0.626 6.355c-0.833 2.010-2.242 3.728-4.051 4.937s-3.936 1.854-6.111 1.854c-2.916-0.003-5.712-1.163-7.775-3.226s-3.222-4.858-3.225-7.774zM16.707 19.707c-0.093 0.093-0.203 0.167-0.325 0.217s-0.252 0.076-0.383 0.076-0.261-0.026-0.383-0.076c-0.121-0.050-0.232-0.124-0.325-0.217l-5-5c-0.093-0.093-0.167-0.203-0.217-0.325s-0.076-0.252-0.076-0.383c0-0.131 0.026-0.261 0.076-0.383s0.124-0.232 0.217-0.325c0.093-0.093 0.203-0.167 0.325-0.217s0.252-0.076 0.383-0.076c0.131 0 0.261 0.026 0.383 0.076s0.232 0.124 0.325 0.217l4.293 4.294 4.292-4.294c0.188-0.188 0.442-0.293 0.707-0.293s0.52 0.105 0.707 0.293c0.188 0.188 0.293 0.442 0.293 0.707s-0.105 0.52-0.293 0.707l-5 5z"></path>
</symbol>
<symbol id="icon-corner-left" viewBox="0 0 38 32">
<path d="M13.814 24.27c0.764 0.743 2.002 0.743 2.765 0l7.124-6.934c0.764-0.743 0.764-1.948 0-2.692s-2.002-0.743-2.765 0l-7.124 6.934c-0.764 0.743-0.764 1.948 0 2.692z"></path>
<path d="M23.689 17.321c-0.764 0.743-2.002 0.743-2.765 0l-7.088-6.9c-0.764-0.743-0.764-1.948 0-2.692s2.002-0.743 2.765 0l7.088 6.9c0.764 0.743 0.764 1.948 0 2.692z"></path>
</symbol>
<symbol id="icon-corner-right" viewBox="0 0 38 32">
<path d="M23.703 7.73c-0.764-0.743-2.002-0.743-2.765 0l-7.124 6.934c-0.764 0.743-0.764 1.948 0 2.692s2.002 0.743 2.765 0l7.124-6.934c0.764-0.743 0.764-1.948 0-2.692z"></path>
<path d="M13.828 14.679c0.764-0.743 2.002-0.743 2.765 0l7.088 6.9c0.764 0.743 0.764 1.948 0 2.692s-2.002 0.743-2.765 0l-7.088-6.9c-0.764-0.743-0.764-1.948 0-2.692z"></path>
</symbol>
<symbol id="icon-close" viewBox="0 0 38 32">
<path d="M24.37 7.732c0.736-0.746 1.929-0.746 2.664 0s0.736 1.955 0 2.7l-5.611 5.687 5.376 5.448c0.736 0.746 0.736 1.955-0 2.701s-1.929 0.746-2.665 0l-5.376-5.448-5.376 5.448c-0.736 0.746-1.929 0.746-2.664 0s-0.736-1.955 0-2.7l5.376-5.448-5.611-5.687c-0.736-0.746-0.736-1.955 0-2.701s1.929-0.746 2.665 0l5.611 5.687 5.611-5.687z"></path>
</symbol>
<symbol id="icon-arrow" viewBox="0 0 31 32">
  <defs>
    <filter id="glow-effect" x="-50%" y="-50%" width="200%" height="200%">
      <feGaussianBlur in="SourceGraphic" stdDeviation="5" result="blur"/>
      <feComponentTransfer in="blur">
        <feFuncA type="table" tableValues="0.5 1" />
      </feComponentTransfer>
      <feMerge>
        <feMergeNode in="SourceGraphic"/>
        <feMergeNode in="blur"/>
      </feMerge>
    </filter>
  </defs>
  <path d="M14.044 11.293l-5.063 5.187c-0.242 0.239-0.566 0.372-0.902 0.369s-0.658-0.141-0.895-0.385c-0.238-0.243-0.372-0.573-0.375-0.917s0.126-0.676 0.36-0.924l7.251-7.428c0.119-0.122 0.26-0.219 0.415-0.286s0.322-0.1 0.491-0.1 0.335 0.034 0.491 0.1c0.155 0.066 0.297 0.163 0.416 0.286l7.251 7.428c0.228 0.249 0.352 0.579 0.347 0.92s-0.14 0.666-0.376 0.907c-0.235 0.241-0.553 0.379-0.886 0.384s-0.655-0.122-0.897-0.356l-5.063-5.187v12.587c0 0.348-0.135 0.682-0.375 0.928s-0.566 0.385-0.906 0.385-0.666-0.138-0.906-0.385c-0.24-0.246-0.375-0.58-0.375-0.928v-12.586z"></path>
  <path stroke-linejoin="miter" stroke-linecap="butt" stroke-miterlimit="4" stroke-width="0.3404" d="M14.214 11.293v-0.418l-5.354 5.485c-0.21 0.207-0.49 0.321-0.779 0.318s-0.569-0.122-0.775-0.333v0c-0.207-0.212-0.324-0.499-0.327-0.8s0.11-0.589 0.312-0.804l7.25-7.427c0.103-0.106 0.226-0.19 0.36-0.248s0.279-0.087 0.424-0.087 0.29 0.029 0.424 0.087c0.135 0.057 0.257 0.141 0.36 0.248l0 0 7.249 7.426c0.197 0.216 0.305 0.503 0.3 0.8s-0.122 0.582-0.327 0.791c-0.205 0.209-0.48 0.328-0.767 0.333s-0.564-0.105-0.775-0.306l-5.353-5.484v13.005c0 0.304-0.118 0.596-0.327 0.81s-0.491 0.333-0.785 0.333c-0.293 0-0.576-0.119-0.785-0.333s-0.327-0.505-0.327-0.81v-12.586z"></path>
</symbol>
</defs>
</svg>
